<?xml version="1.0" encoding="UTF-8"?>
<svg id="Layer_1_Snap_copy_Logo_Female_Face_Hue_Saturation_3_Hue_Saturation_2_Hue_Saturation_1_Image" data-name="Layer 1 + Snap copy + Logo_Female_Face + Hue/Saturation 3 + Hue/Saturation 2 + Hue/Saturation 1 Image" xmlns="http://www.w3.org/2000/svg" xmlns:xlink="http://www.w3.org/1999/xlink" viewBox="0 0 1795.82 1774.15">
  <defs>
    <style>
      .cls-1 {
        fill: url(#linear-gradient-2);
      }

      .cls-2 {
        fill: #f3eee6;
      }

      .cls-3 {
        fill: url(#linear-gradient-4);
      }

      .cls-4 {
        fill: url(#linear-gradient-3);
      }

      .cls-5 {
        fill: url(#linear-gradient);
      }
    </style>
    <linearGradient id="linear-gradient" x1="0" y1="887.08" x2="1795.82" y2="887.08" gradientUnits="userSpaceOnUse">
      <stop offset="0" stop-color="#bb6605"/>
      <stop offset=".51" stop-color="#fdf1a3"/>
      <stop offset="1" stop-color="#bb6605"/>
    </linearGradient>
    <linearGradient id="linear-gradient-2" x1="356.64" y1="1104.94" x2="1434.7" y2="1104.94" xlink:href="#linear-gradient"/>
    <linearGradient id="linear-gradient-3" x1="464.54" y1="1410.7" x2="1327.84" y2="1410.7" xlink:href="#linear-gradient"/>
    <linearGradient id="linear-gradient-4" x1="715.86" y1="646.91" x2="1084.75" y2="471.8" gradientUnits="userSpaceOnUse">
      <stop offset="0" stop-color="#665b00"/>
      <stop offset=".52" stop-color="#8b6100"/>
      <stop offset="1" stop-color="#a70"/>
    </linearGradient>
  </defs>
  <polygon class="cls-2" points="580.79 1369.21 580.79 1369.21 580.79 1369.21 580.79 1369.21"/>
  <polygon class="cls-2" points="700.17 1057.55 700.17 1057.55 700.17 1057.55 700.17 1057.55"/>
  <path class="cls-2" d="M558.53,1683.9s0,0,0,0c0,0,.01,0,.02,0,0,0-.01,0-.02-.01Z"/>
  <path class="cls-5" d="M1786.67,744.5c-.24-1.85-.59-4.3-1.91-5.69-2.45-17.15-5.28-31.96-9.1-48.57-2.94-23.84-10.55-46.95-17.2-69.82-11.95-41.09-25.35-81.33-44.52-119.4.22-1.96-.73-3.41-1.49-5.08-13.1-28.92-29.59-57.57-47.07-83.97-6.4-12.06-14.26-23.81-22.04-35.13-6.55-9.54-12.86-19.01-20.46-27.6-4.99-8.34-11.13-16.21-17.22-23.76-6.34-7.85-13.13-15.71-20.21-22.79-1.23-3.02-4.37-6.7-6.56-9.12-6.61-7.31-13.73-14.33-20.76-21.24.02-1.98-1.36-2.81-2.51-4.06-9-9.79-18.94-18.62-28.85-27.3-6.71-6.84-14.09-14.46-21.23-20.76-7.09-6.25-14.95-12.11-22.28-17.69-7.33-7.87-16.77-15.04-25.4-21.66-11.81-9.04-24.39-18.56-37.33-25.9-7.17-6.51-15.95-11.27-24.28-16.19-14.47-10.8-30.47-20.23-46.54-28.34-14.71-8.92-30.57-17.85-46.54-24.28-14.33-8.34-30.19-13.99-45.53-20.24-11.61-4.73-27.34-12.94-39.46-15.18-9.34-3.7-18.93-7.41-28.54-10.41-6.2-1.93-23.76-7.8-29.12-7.8-14.39-5.23-29.64-7.91-44.52-11.13-15.88-3.44-31.54-6.52-47.55-9.11-.51-.18-.92-.24-1.26-.21-8.74-1.47-17.08-3.36-26.06-3.84-.97-1.53-4.32-1.19-6.07-1.01-.33.04-.69-.05-1.01,0-6.02-1.48-12.97-1.43-19.23-2.02-.33-.03-.67.03-1.01,0-6.09-.56-12.82-1.87-19.22-2.02-.33-.01-.68-.02-1.01,0-1.05-1.68-3.84-1.02-5.55-1.03-12.36-.14-24.61-1.14-36.95-1-1.05-1.68-3.83-1.01-5.55-1.03-17.21-.21-34.44.23-51.65-.02l-35.88,3.08c-.99.04-2.09-.14-3.03,0l-20.24,2.02c-2.42-.01-4.88-.36-7.08,1.01-3.82-.46-6.37.43-9.33.89-.22-.02-.48.01-.79.12-6.08.76-12.34,1.83-18.26,2.74-.53-.1-1.17-.03-1.97.3-8.34,1.24-16.01,2.52-24.28,4.05-7.88,1.45-15.9,2.42-23.77,4.06-.42.16-.74.72-.52,1-.32-.03-.68-.01-1.01,0-2.81.08-6.7.48-9.1,2.02-5.55.27-12.7,3.67-18.21,5.06-7.39.15-19.02,4.98-26.31,7.08-16.03,3.43-31.94,8.11-47.55,13.16-5.15,1.21-10.09,2.74-15.18,4.04-9.87,2.53-20.05,4.74-29.34,9.11-8.86,1.91-18.27,4.9-26.3,9.11-9.81,2.68-20.67,5.97-29.34,11.13-8.94,2.93-18.33,6.19-26.31,11.13-6.6,2.5-13.44,4.94-19.22,9.11-8.64,2.95-17.25,7.35-25.32,11.61-4.61,2.43-10.21,5.28-14.14,8.62-6.75,3.19-14.51,6.09-20.24,11.13-11.33,5.35-23.23,12.81-33.38,20.24-10.06,5.65-20.36,11.69-29.34,19.23-4.48,2.63-9.53,5.33-13.16,9.1-6.2,3.59-12.23,7.99-17.2,13.16-11.92,7.13-23.18,16.69-33.38,26.31-8.33,5.86-16.38,12.82-23.27,20.23-5.76,4.65-11.7,9.19-16.19,15.18-9.32,7.53-18.73,16.36-26.83,25.28-1.14,1.26-2.53,2.07-2.51,4.07-8.2,7.91-17.19,15.47-23.27,25.29-9.76,9.66-20.08,20.78-27.32,32.38-8.65,9.76-17.66,20.05-24.28,31.37-8.3,9.66-16.58,21.69-23.69,32.47-2.4,3.64-5.3,7.93-6.66,12.06-12.44,17.1-23.3,35.52-32.38,54.64-2.45,3.87-5.25,7.91-7.61,12.12-5.85,10.46-11.17,22.27-15.66,33.41-7.72,13.39-14.29,29.42-20.23,44.02-2.75,6.74-5.81,13.51-7.09,20.74-5.26,12.91-11.14,25.74-14.16,39.47-7.48,20.76-12.02,40.4-17.2,61.72-7.78,31.98-15.33,64.13-18.21,97.14,0,0,0,0,0,0h0s-.11,0-.11,0c-.81,0-.81.74-.92,1.47-4.44,31.2-4.18,63.77-7.11,95.12,1.04,90.58,10.62,184.55,39.5,270.72.04.2.09.4.14.6.02.08.04.17.06.25,3.51,16.16,9.83,31.54,15.99,46.71-.39,2.06.48,3.62,1.13,5.44,6.52,18.24,14.29,36.05,23.15,53.25.6,3.81,2.58,7.98,4.19,11.49,5.32,11.58,11.46,23.4,18.07,34.04,2.65,7.43,7.11,15.88,11.28,22.67.59.96,1.71,1.37,1.87,1.62,5.8,13.23,13.87,25.87,22.26,37.44.06,1.82,1.1,3.11,1.99,4.57,6.76,11.01,14.53,21.72,22.29,31.86,8.93,14.73,19.68,28.76,31.37,41.48,5.33,8.91,13.05,16.82,20.23,24.29-.02,1.98,1.36,2.81,2.51,4.06,9.2,9.98,18.31,19.73,27.84,29.33.34.34.68.68,1.02,1.01-.03,1.99,1.36,2.82,2.51,4.07,12.41,13.5,32.64,34.37,47.06,44.5,3.94,3.84,10.39,11.36,14.66,14.22.99.67,2.3.78,2.54.96,9.93,9.75,21.01,18.32,32.38,26.31,9.16,8.63,19.76,15.58,30.35,22.26,6.43,6.34,14.6,10.56,22.26,15.18,12.5,9.7,26.32,18.18,40.47,25.3,5.22,5.29,12.65,7.99,19.22,11.13,7.06,6,15.98,9.35,24.28,13.15,14.67,9.89,31.45,16.17,47.55,23.28,12.01,5.29,24.33,12.85,37.44,15.17,14.08,7.11,29.54,11.35,44.52,16.19,2.44.79,4.75,1.3,7.08,2.03.08.02.15.05.23.07,2.24.69,4.64,1.28,6.85,1.95.07.02.14.04.21.07h.01c5.14,1.56,10.56,3.46,15.97,4.99,7.74,2.2,15.46,4.06,23.27,6.07,2.54.66,5.07,1.32,7.61,1.99h0c.2.05.4.11.6.16.07.02.15.04.23.05,9.23,2.44,18.46,4.86,27.97,6.91,12.71,2.73,24.62,4.9,37.44,7.08.19.03.38.06.57.1h.06c8.71,1.48,17.75,2.7,26.68,3.95,6.91.96,14.04,2.24,21.25,3.03.13.06.26.11.38.15.07.03.14.06.22.07.08.03.15.05.22.06.11.03.22.05.33.06.13.02.26.03.39.03h.01c.08,0,.16,0,.24-.01.21-.02.45-.04.72-.07h.02c6.08.74,12.45,1.65,18.72,1.74,8.78,1.77,21.55,1.8,31.43,1.98h.02c.59.05,1.23.07,1.93.04.68.02,1.35,0,2.03,0,1.01.02,2.02,0,3.03,0,5.39,1.87,12.42,1.01,18.21,1.01,16.36.03,32.75-.04,49.12.05l39.92-3.08,23.27-2.03c.98.08,2.05.05,3.03,0,5.13-.23,10.35-1.4,15.18-2.02,1.82-.23,3.26-.9,4.05-1.01h-4.05v-1s0,0,0,0v.99h4.04c-.03-.41-.2-.68-.47-.84.27.16.44.43.47.85,4.55-.61,9.21-1.15,13.62-1.79.49.01,1.01-.06,1.55-.23,4.42-.68,8.94-1.31,13.16-2.03,9.22-1.56,18.15-3.25,27.31-5.06,3.42-.67,6.71-1.3,10.12-2.02,6.4-1.36,12.85-2.53,19.22-4.05,2.74-.65,5.39-1.33,8.1-2.02,5.75-1.46,11.78-2.55,17.2-5.06,9.07.03,29.04-8.2,38.44-11.13,9.36-2.92,18.29-5.91,27.32-9.11,17.09-6.06,34.74-11.19,50.59-20.24,8.73-2.14,21.49-8.04,30.02-11.96,7.58-3.49,15.89-7.47,22.59-12.32,11.25-4.45,21.75-10.49,32.37-16.19,9.95-5.34,20.43-10.21,29.34-17.2,7.64-4.08,15.64-8.5,22.26-14.17,12.9-7.28,26.1-16.8,37.44-26.31,8.76-5.87,17.85-11.57,25.29-19.23,6.14-4.16,13.27-8.29,18.21-14.16,13.52-8.81,24.82-20.06,36.43-31.37,10.94-8.54,22.68-16.27,31.36-27.32.17-.14,1.58-.32,2.54-.96,4.87-3.24,12.8-12.94,15.67-18.27,11.09-8.94,29.13-31.66,38.97-43.49,3.04-3.65,6.63-7.82,8.58-12.16,9.57-11.18,20.17-25.42,28.56-37.71,3.56-5.23,7.18-11.22,9.89-16.93,4.66-6.75,10.09-13.44,13.15-21.25,11.01-15.43,19.64-32.74,28.33-49.58,9.31-14.4,17.15-33.69,24.28-49.58,8.16-18.19,16.87-36.4,22.26-55.66,30.67-71.42,48.72-169.28,51.6-246.89,0,0,0,0,0,0,0,0,0,0,0,0,3.23-24.13,2.03-53.27,1.01-77.91-.04-1.18-.06-2.36-.07-3.55-.09-8.43.46-16.92.11-25.33-.61-15.06-2.12-30-4.08-44.86-.89-7.67-1.98-15.26-3.32-22.74-1.21-7.65-2.49-15.29-3.77-22.92-2.25-13.4-4.3-27.08-7.08-40.48-3.46-16.69-7.74-33.13-12.14-49.58-1.65-6.17-3.29-12.1-5.06-18.21-.99-3.42-2-6.73-3.03-10.12-1.66-5.42-3.29-10.81-5.06-16.19-1.1-3.32-1.91-6.82-3.04-10.12-.69-2.02-1.23-4.09-2.02-6.07l-10.11-24.29c.82,9,6.25,17.85,9.1,26.31.67,2.01,1.36,4.07,2.02,6.07,1.03,3.1,1.98,6.82,3.04,10.12,1.69,5.32,3.48,10.86,5.05,16.19,1.09,3.66,2.01,7.45,3.04,11.13,1.59,5.7,3.59,11.51,5.06,17.2,4.57,17.67,7.44,35.98,12.14,53.63l7.08,43.51c1.16,21.06,5.3,41.99,5.07,63.24l3.02,29.86c1.77,83.46-9.62,159.12-28.32,239.81-7.9,25.98-14.79,52.25-23.83,77.87-7.12,20.17-17.6,40.72-23.73,60.76-2.61,2.52-3.35,5.79-4.04,9.11-1.73.64-2.13,2.26-2.89,3.68-7.52,14.01-17.58,32.45-23.42,46.91-10.41,14.87-18.87,31.07-28.33,46.55-13.39,19.28-26.93,38.49-40.47,57.67-9.61,10.69-18.36,22.53-27.34,33.88-3.63,4.58-7.62,9.24-11.1,13.68-11.82,12.46-23.52,25.06-35.41,37.44-1.62,1.69-3.4,3.36-5.06,5.06-1.99-.02-2.82,1.36-4.07,2.51-16.64,15.31-33.4,32.18-49.56,48.09-7.65,4.13-13.88,10.58-20.23,16.19-7.6,4.13-13.67,10.69-20.24,16.19-14.48,10.1-29.29,19.86-43.5,30.35-8.51,4.36-16.39,9.84-24.28,15.18-13.22,6.7-25.8,14.58-38.45,22.26-14.67,4.78-27.62,13.88-41.48,20.24-11.8,5.41-24.4,10.19-36.42,15.18-11.29,4.68-23.05,8.57-34.4,13.15-14.24,2.78-27.71,8.87-41.48,13.16-8.52,2.64-20.3,7.19-28.33,9.1-5.67,1.35-11.38.31-16.59,1.12-12.02,1.87-24,5.17-36.02,6.98-11.65,1.75-24,3.81-35.41,5.06.17.62.32,1.12.47,1.52-.15-.4-.31-.9-.47-1.52-8.08.88-16.29.56-24.29,2.02l-25.29,2.02c-.67.01-1.35-.02-2.02,0-18.17.8-36.43,1.45-54.64,2.03-1.05-1.68-3.84-1.01-5.55-1.03-21.7-.23-41.68-1.29-63.25-3.02-4.03-.32-8.1-.67-12.14-1.01-3.72-.31-7.41-.66-11.13-1.01-2.69-.26-5.36-.73-8.09-1.01-2.96-.31-5.2-1.13-9.11-1.02-2.3-1.06-4.81-.69-7.08-1.01-2.82-.4-4.37-1.17-8.09-1.01l-49.58-9.11c-.35-.03-.7-.05-1.05-.08-.39-.88-1.22-.74-1.98-.93-9.32-2.42-19.01-3.74-28.33-6.07-5.35-1.34-10.88-2.62-16.19-4.05-12.07-3.23-26.5-7.42-38.45-11.13-20.14-6.25-39.74-14.44-59.69-21.25l-50.59-22.26-43.5-22.26c-10.12-6.28-21.16-11.93-31.37-18.21-14.28-8.8-27.67-19.33-42.49-27.33-13.73-10.17-26.94-21.35-41.48-30.35-13.88-11.77-28-23.69-41.46-35.95-1.26-1.13-2.09-2.53-4.07-2.5-19.05-18.69-38.06-37.51-56.66-56.67-8.04-9.54-17.14-19.08-25.26-28.87-12.78-15.4-24.31-31.92-37.47-47.02l-48.56-73.87c-14.03-24.57-27.67-50.04-39.46-75.89-5.63-12.35-10.7-25.02-16.19-37.44-.22-.67.16-2.08-.23-3.26-9.2-27.96-20.22-55.36-28.09-83.76-20.78-83.08-31.76-157.81-32.38-243.86,1.68-1.05,1.01-3.84,1.03-5.55.76-72.75,12.56-140.66,29.32-210.99,1.78-4.88,3.4-9.78,4.85-14.71,3.58-11.58,6.77-23.3,10.33-34.88,10.14-28.4,22.05-56.07,33.39-83.98,9.37-18.06,18.31-36.4,27.31-54.64,10.51-17.49,21.23-34.92,31.37-52.62,9.31-12.36,18.05-25.5,26.3-38.45,9.54-11.42,18.7-23.29,27.32-35.42,5.35-4.53,8.95-10.73,13.15-16.19,8-5.72,13.66-14.45,20.24-21.25,10.73-11.09,22.45-21.44,33.38-32.38,3.86-1.92,7.85-5.7,11.15-8.58,4.22-3.69,8.09-7.81,12.13-11.66,4.98-3.12,11.49-8.52,15.17-13.15l21.75-16.22c1.25-.53,1.82-2.4,2.53-3.01l23.27-17.2c12.09-6.74,23.2-15.2,34.4-23.27,6.89-2.23,12.47-7.17,18.21-11.13,9.22-3.94,17.73-9.94,26.31-15.18,9.38-4.28,19.09-8.93,28.07-13.96,1.32-.74,2.03-2.09,2.28-2.23,1.96.22,3.41-.73,5.08-1.49,5.36-2.43,36.94-16.61,38.43-18.75,2.39.82,4.04-1.66,5.06-2.02,7.14-2.54,34.18-11.07,38.44-15.18,7-1.61,13.63-4.36,20.24-7.08.7-.22,1.39-.44,2.08-.68.24-.08.48-.15.73-.23,6.92-2.08,16.05-3.96,21.47-7.19l39.53-10.6c.97-.05,1.48-1.26,1.95-1.54,8.95-.67,17.61-4.06,26.31-6.07,6.31-1.46,12.87-2.71,19.22-4.05,4.98-1.05,9.92-1.34,14.44-2.25,9.26-1.85,13.46-3.99,22.99-3.82,1.47.02,2.64-.11,4.07-.44,8.41-1.91,17.27-2.76,26.29-3.61.33-.03.67.03,1.01,0,7.42-.69,14.82-1.45,22.26-2.02.33-.03.67.02,1.01,0,.63-.05,1.26-.1,1.89-.16,8.1-.66,16.35-1.52,24.41-1.87,2.02-.08,4.06.03,6.07,0,3.52-.04,8.45.88,11.13-1.01,1.01.01,2.03,0,3.04,0,19.04.08,37.67-.49,56.66,0,1.01.03,2.02-.03,3.03,0,3.14.1,5.71.94,8.56,1.06,11.59.48,23.02-.18,34.54,1.57.01,0,.02.01.03.01.65.2,1.45.33,2.4.4,12.09,2.16,26.03,2.39,38.45,4.05,4.69.62,9.46,1.35,14.16,2.02.09-.27.18-.49.27-.68-.09.2-.18.42-.27.68h4.04s0,0,0,0h-4.04c4.81.7,10.2,1.25,15.18,2.03,11.71,1.85,23.76,3.85,35.41,6.07,7.53,1.45,15.61,3.45,23.27,5.06.06.06.17.08.29.06,2.54.56,5.18,1.4,7.8,1.97,2.47.53,5.26,1.4,8.1,2.02,7.95,3.64,16.95,4.74,25.29,7.08,22.16,6.24,43.81,14.35,65.76,21.25,5.98,2.55,11.9,5.4,18.21,7.09,12.66,6.06,25.61,12.01,38.43,17.73,1.67.75,3.12,1.72,5.08,1.49,20.05,10.63,40,21.12,59.69,32.38,4.05,2.32,7.82,5.24,12.14,7.09.28.11.7-.11,1.01,0,3.7,4.03,9.79,6.22,14.17,9.1,3.34,2.2,6.75,4.8,10.12,7.09,3,2.03,6.15,4.01,9.1,6.07,4.08,2.83,8.07,6.21,12.14,9.1,2.81,2,5.75,5.14,9.11,6.07-2.06-2.75-5.38-4.96-8.09-7.08-3.97-3.1-8.08-6.14-12.15-9.1-2.88-2.11-6.17-3.98-9.1-6.08-3.35-2.4-6.74-4.72-10.12-7.08-8.42-5.87-16.68-11.59-25.29-17.2-20.36-13.25-39.53-25.25-61.72-35.42-8.68-5.12-17.79-9.81-26.95-14.02-8.01-3.68-16.33-7.77-24.65-10.26-13.33-7.82-28.11-12.75-42.49-18.22-7.04-2.67-24.55-11.02-31.37-11.13-1.92-1.83-5.55-2.71-8.12-3.51-4.72-1.45-16.12-5.59-20.2-5.59-8.1-3.17-16.86-5.45-25.29-7.6-6.16-1.58-18.67-5.56-24.29-5.56-6.95-3.28-15.74-3.61-23.27-5.06-.58-.2-1.07-.28-1.49-.28h-.02c-3.21-.6-6.41-1.15-9.62-1.74,0,0,0,0,0,0h0c-5.06-.94-10.03-2.18-15.18-3.04-4.04-.67-8.06-1.41-12.14-2.02-.64-.1-1.38.09-2.02,0-.12-.02-.24-.03-.36-.05-4.41-.65-9.14-1.42-13.8-1.97-.82-.39-1.5-.45-2.07-.31-3.54-.58-7.5-1.54-11.09-1.72-.33-.01-.67.01-1.01,0-1.14-1.84-4.19-.79-6.07-1.01-4.45-.52-7.49-.94-12.14-1.01-.34-.01-.67,0-1.01,0-1.13-1.76-4.16-.91-6.07-1.01-1.68-.1-3.39.1-5.06,0-23.97-1.53-46.14-3.79-70.82-3.04l-4.05-2.02c.34-.01.67,0,1.01,0,2.22-.03,5.7.75,7.08-1.01,5.53-.05,10.59-.91,15.64-1.06,13.98-.41,28.06.39,42.03.04,1.33.12,2.71-.06,4.05,0,.34.02.68-.01,1.01,0,.49,1.32,1.93.98,3.04,1.02,13.71.45,26.66.14,40.47,1.01,9.04.56,18.29,1.13,27.31,2.02,20.99,2.07,42.75,5.2,63.74,9.11,13.92,2.59,27.71,5.91,41.49,9.11,14.02,3.25,28.65,6.26,42.49,10.11.23.07.93,1.26,1.96,1.55l45.59,13.63c.18,1.09,6.34,3.2,7.85,3.79,13.31,5.26,27.23,9.62,40.71,14.43l50.59,22.26c13.97,7.75,28.14,15.24,42.5,22.26,9.62,5.89,19.11,12.35,29.34,17.2,10.44,7.33,21.29,14.07,31.68,21.44,10.53,7.46,20.16,16.14,31.04,23.08,9.33,7.66,18.43,15.69,27.85,23.25,3.91,3.14,8.16,6.91,12.62,9.13,13.65,12.61,27.57,25.53,41.01,38.43,14.18,13.62,27.36,28.32,41.96,41.51,11.7,13.52,22.72,27.93,35.41,40.48,8.78,11.4,16.37,23.88,26.3,34.4,5.82,8.62,11.46,18.13,18.22,26.31,6.25,10.97,13.69,21.16,20.03,32.08,17.66,30.42,33.27,61.82,48.76,93.39,18.57,44.91,35.25,90.31,48.11,137.24.5,1.81.99,3.62,1.47,5.44,6.06,25.8,11.55,51.79,16.19,77.91l9.02,94.88c.42,12.19.57,24.38.47,36.56,0,.17,0,.33-.01.49-.72,50.54-6.5,100.24-13.53,150.39-3.27,9.37-3.48,19.61-5.06,29.34,0,.02-.02.06-.04.11-.15.36-.73,1.47-.97,2.93-.05.33.05.68,0,1.01-.03.16-.06.32-.1.48-.29,1.12-.87,2.19-.91,4.58,0,.33-.02.68,0,1.01-3.43,8.06-3.96,17.75-6.07,26.31-1.76,7.11-4.04,15.04-6.07,22.26-2.8,9.93-5.96,20.66-9.11,30.36-1.58,4.88-3.41,10.43-5.06,15.18-.45,1.3-1.35,3.17-2.02,5.05-1.3,3.66-2.69,7.49-4.05,11.14-2.85,7.65-6.03,15.68-9.1,23.27-5.21,12.86-11.36,26.86-17.2,39.46-4.19,9.04-8.64,18.45-13.16,27.32-4.15,8.17-9.51,15.83-13.15,24.29l-24.27,42.5c9.34-13.05,17.52-27.37,25.28-41.49,4.56-8.3,8.87-16.85,13.16-25.3,4.41-8.71,9-17.47,13.15-26.31,6.06-12.91,11.8-26.25,17.2-39.46,3.14-7.69,6.19-15.49,9.1-23.27,1.38-3.69,2.73-7.43,4.05-11.13.7-1.96,1.29-3.95,1.97-5.91.01-.05.03-.11.05-.16,1.64-4.71,3.51-9.44,5.06-14.17,3.18-9.68,6.25-19.57,9.11-29.35,2.15-7.35,4.08-14.85,6.07-22.26,2.26-8.4,4.03-16.85,6.07-25.29.08-.32-.08-.7,0-1.02.03-.11.66-.54,1.01-2.02.08-.32-.07-.69,0-1.01l.46-1.85s.03-.1.04-.15l.51-2.05c1.35-5.85,3.61-11.74,4-17.81v-.02c.23-1.16.29-2.06.05-2.41,24.51-90.18,20.69-204.65,8.99-296.86ZM6.04,804.34c0,.34,0,.67,0,1.01,0-.13,0-.25,0-.38,0-.21,0-.42,0-.63ZM5.1,816.73s0-.02.01-.02h0s-.01.01-.01.02c0,0,0,0,0,0-.03.41-.04.82-.04,1.23,0-.41,0-.82.04-1.23ZM5.11,822.52c0,.09,0,.18,0,.27h0c0-.09,0-.18,0-.27ZM4.17,946.7c0,2.35-.11,4.72-.17,7.08.06-2.36.16-4.73.17-7.08ZM4.09,943.21h0s0,.05,0,.07c0-.02,0-.05,0-.07ZM4.09,823.81h0s0,0,0,0h0s0,0,0,0c0,0,0,0,0,0ZM4.07,838.63c-.03-2.57-.1-5.18-.12-7.76.02,2.59.09,5.19.12,7.76ZM3.95,828.58c0,.64,0,1.27,0,1.92,0-.36,0-.72,0-1.08,0-.28,0-.55.01-.83ZM4.09,842.02c0-.99,0-1.99-.01-3,.01,1,.02,2.01.01,2.99,0,0,0,0,0,0h0c-.34.32-.58.71-.76,1.16.18-.45.42-.84.76-1.16ZM3.08,850.67c0,.14,0,.27,0,.41,0-.05,0-.1,0-.15v-.25ZM1.06,884.01h0s.52.26.52.26l-.52-.26ZM3.08,939.18h0s0,0,0,0h0ZM3.1,939.25v-.03s0,.02,0,.03l.82,3.3-.83-3.3ZM4.09,960.41c-.05-.64-.08-1.29-.1-1.94.02.65.05,1.3.1,1.94h0ZM5.1,969.52c-.05-.56-.05-1.13-.05-1.7,0,.57,0,1.14.05,1.7,0,0,0,0,0,0ZM5.1,962.44l-.74-1.48-.2-.41.2.41.74,1.48s0,0,0,0c0,.1,0,.21,0,.31,0-.1,0-.21-.01-.31ZM6.11,982.67c-.05-.48-.07-.97-.09-1.46.02.49.05.98.09,1.46,0,0,0,0,0,0ZM6.14,982.69s0,0-.02,0c0,0,.01,0,.02,0h0ZM6.11,970.53s0,0,0,0c.01.17.02.34.03.51-.01-.17-.02-.34-.03-.51ZM6.11,814.69s0,0,0,0c.02-.25.03-.5.05-.74-.01.25-.02.5-.04.74ZM6.11,802.55h0s0,.01,0,.01c-.04.47-.06.94-.07,1.42.01-.48.03-.95.07-1.42h0c0-.11,0-.22.02-.33,0-.1,0-.21.03-.31.01-.08.02-.15.03-.22,0,0,0-.02,0-.03-.05.28-.06.58-.08.88ZM6.22,801.56s0-.02,0-.02c0,0,0-.01,0-.02,0,.01,0,.03-.01.04ZM6.45,800.99s.01-.02.02-.03c0,0,.01,0,.02-.01-.01.01-.02.03-.03.04ZM8.11,782.04s0-.02,0-.03c0-.11,0-.21.01-.31,0,.11-.01.23-.01.34ZM12.18,1022.14c.01.1,0,.2.01.31,0-.1,0-.2-.02-.31,0,0,0,0,0,0ZM10.16,1007.97s0,0,0,.01c0,0,0,0,0-.01h0ZM9.16,1006.98v-.02s.02.03.02.03c0,0,0,0-.02,0ZM10.18,1010.43c.02-.51.02-1-.02-1.44h0c-.01-.16,0-.31,0-.46,0,.15-.01.3,0,.45h0s0,.01,0,.01c.05.45.04.94.02,1.45ZM11.17,1017.07h0s0,0,0,0c0,.11,0,.22,0,.33,0-.11,0-.22,0-.33-.25-.22-.44-.47-.6-.75.16.28.35.52.6.74ZM11.18,1021.15v-.02c-.12-1.07,0-2.17,0-3.26,0,1.08-.12,2.19-.02,3.25h0s0,0,0,0l.02.02h-.01ZM12.18,1025.17c-.04-.23-.04-.48-.04-.73,0,.25,0,.49.05.73,0,0,0,0,0,0ZM12.14,1024.41c0-.54.07-1.11.07-1.65,0,.55-.06,1.11-.07,1.65ZM16.96,1055.91c1.72,8.7,3.74,17.41,5.9,26.08-2.17-8.66-4.18-17.38-5.9-26.08ZM1581.91,1412.72c-.44-.38-.83-.71-1.11-1.08.28.36.67.69,1.11,1.07h0ZM1580.39,1409.69h2.02l-.2,1.24.2-1.24h-1.85s-.16,0-.16,0c-.06.26-.07.49-.06.7,0,.31.09.58.21.83-.12-.25-.2-.51-.21-.82,0-.22.01-.44.06-.71ZM1053.27,1755.76v.99s0,0,0,0v-.99c-.53-.06-.99-.09-1.38-.08.4,0,.86.02,1.39.08ZM1034.76,1734.5c-.1,0-.2,0-.29,0,0,0-.02,0-.03,0,.11,0,.22,0,.32,0ZM1030.58,1737.83c.19-.06.4-.1.61-.13-.41.06-.79.16-1.12.35.16-.09.33-.16.51-.22ZM1028.74,1735.44s-.05,0-.07,0c-.02,0-.04,0-.06,0,.04,0,.08,0,.13,0ZM59.27,700.27l-.55,1.1h0l.55-1.1ZM58.86,701.25c-.08.06-.13.09-.13.12h0s.06-.06.13-.12ZM58.72,703.4s-.01.01,0,.02c0,0,0,.01-.01.02,0-.01,0-.03.01-.04ZM53.43,728.95c1.03-5.37,1.75-10.83,2.84-16.2-1.09,5.37-1.8,10.83-2.83,16.2-2.72,14.15-5.8,28.89-7.99,43.2,2.19-14.31,5.27-29.05,7.99-43.2ZM44.56,780.29s0,0,0-.01c0,0,0,.01,0,.01-.39,3.08-.86,6.15-1.12,9.25.26-3.1.73-6.18,1.12-9.25ZM42.54,791.42l.4-.34-.4.34c-.13,2.16-.3,4.3-.48,6.43.18-2.13.35-4.27.48-6.43ZM38.49,829.88l.07-.27-.07.27c-.01.17-.02.33-.02.5,0-.17.01-.33.02-.5ZM38.49,840v3.04c-.02.33-.02.67-.02,1.01,0-.34,0-.68.02-1.01v-3.04c.04-.66.06-1.32.06-1.98,0,.66-.01,1.32-.06,1.98ZM38.5,846.62c0,.15,0,.3-.01.46,0,0,0,0,0,0,0-.15,0-.3.01-.46ZM37.48,850.11l.43-1.28-.42,1.28c-.15,2.68.11,5.41,0,8.09,0,.02-.01.04-.02.08v.02s.02-.09.02-.09c.11-2.68-.14-5.42,0-8.1ZM38.4,952.21c-.25-4.22-.87-8.72-.93-13.05v-1.01c-.03-1.62.6-4.21-1.01-5.06,0-.18,0-.35,0-.53,0,.18,0,.35,0,.53,1.61.85.98,3.44,1.01,5.06v1.01c.06,4.34.68,8.84.92,13.06ZM38.49,956.36c.02-.61.02-1.23,0-1.85,0,.26.02.52.02.77,0,.37-.01.73-.02,1.09,0,.09-.02.22-.03.34.01-.12.03-.25.03-.34h0s0,0,0,0ZM39.26,997.1c-.74-.35-1.95-.25-2.51-.47.57.22,1.77.12,2.51.47ZM37.48,963.44c.02-.32.04-.65.08-.99-.03.34-.06.67-.08.99h0c-.1,2.04-.2,5.07-.23,8.01.03-2.95.13-5.98.23-8h0s0,0,0,0ZM36.47,906.78c0,2.36-.01,4.73,0,7.09,0,2.13,0,4.26-.01,6.39,0-2.13.01-4.27,0-6.4,0-2.36,0-4.72,0-7.08,0-5.38-.06-10.81,0-16.19,0-.67,0-1.35,0-2.02,0-.67,0-1.35,0-2.02.03-1.86.03-3.73.01-5.59.01,1.87.02,3.73-.01,5.6-.01.67,0,1.35,0,2.02-.01.67,0,1.35,0,2.02-.06,5.39-.01,10.81,0,16.19ZM36.46,923.66c0,2.13,0,4.27.01,6.4v1.01c0,.17,0,.35,0,.53,0-.18,0-.35,0-.53v-1.01c-.01-2.13-.01-4.26,0-6.4ZM36.54,996.51c-.06-.06-.1-.12-.11-.21,0-.06-.01-.26-.01-.54,0,.28,0,.48.01.54.01.08.05.15.11.2ZM36.47,992.25c.03-1.12.07-2.13.11-2.6-.04.46-.08,1.48-.11,2.6ZM36.47,862.26l.49-1.97-.49,1.97c-.07,1.98-.09,3.96-.1,5.94,0-1.98.03-3.97.09-5.94ZM39.5,999.36c.23-.47.34-.84.37-1.15-.03.31-.14.68-.37,1.15-.6,1.23-2.39,1.14-3.36,1.57.97-.44,2.76-.35,3.36-1.58ZM37.48,1008.97h2.01s-.42-5.08-.42-5.08l.42,5.08h-2.02c-.05-1.29-.18-2.69.13-3.91-.31,1.22-.17,2.62-.13,3.91ZM35.01,1102.88c0-.37-.01-.78,0-1.32.06-9.41.29-19.1.41-28.92-.12,9.81-.35,19.51-.41,28.92,0,.53,0,.95,0,1.31ZM35.2,1001.82c-.9,1.27-1,2.89-.82,4.63-.19-1.74-.09-3.37.82-4.63ZM34.44,1120.27c-.03-.09-.03-.19-.04-.29,0,.1.01.2.04.29h0ZM34.53,1111.57c-.17-.51-.2-1.01-.16-1.49-.04.48,0,.97.16,1.49.13.39.36.68.65.9-.29-.22-.53-.5-.65-.9ZM35.16,1125.33l3.32,6.07s0,0,0,.01l-3.32-6.08ZM37.17,1113.15c.14.03.26.06.29.09.02.03.03.07.02.14,0-.06,0-.11-.02-.13-.03-.04-.14-.07-.29-.09ZM35.46,1027.2s0,0,0,0l4.41,3.95-4.41-3.95ZM40.53,1031.73c-.22-2.83-2.7-8.04-3.11-10.7.42,2.65,2.89,7.87,3.12,10.7h0ZM37.55,1019.08c.44-1.68,1.58-3.47,2.35-4.85-.76,1.39-1.9,3.18-2.35,4.85ZM40.52,1012.91c.13-.39.15-.7-.01-.89-.45-.52-.85-.51-1.23-.23.38-.29.78-.3,1.23.22.16.19.14.49,0,.89ZM530.71,1698.73s.05,0,.08,0c-.03,0-.05,0-.08,0,.55.2,1.11.4,1.66.59,0,0,0,0,.01,0-.56-.2-1.11-.4-1.67-.6ZM705.88,1730.22s-.08,0-.12,0h0s.13,0,.13,0c.56.02,1.11.07,1.63.2-.52-.13-1.07-.18-1.63-.2ZM707.56,1730.42s0,0,0,0c.02,0,.07.04.1.06-.04-.02-.08-.05-.1-.06ZM708.04,1730.75c-.09-.07-.16-.12-.23-.17.07.05.14.1.23.17.02.01.04.03.05.04-.02-.01-.04-.03-.06-.04ZM715.85,1733.47l-.39-.76.39.76h0ZM716.36,1732.48h0s0,0,0,0h0ZM798.04,1767.01c-.26-.06-.5-.11-.71-.13,0,0-.02,0-.03,0h0s0,0,0,0h0s.05,0,.05,0c.2.02.42.07.68.13.39.09.84.23,1.33.38-.49-.15-.94-.28-1.33-.38ZM801.02,1767s-.08,0-.12-.01c.06,0,.13,0,.18.01h-.07ZM801.37,1769.9s-.01,0-.02,0l3.07-1.52-3.05,1.52ZM805.38,1767.9c-.18.07-.37.12-.55.16-.02,0-.04,0-.06.01-.47.1-.95.12-1.44.11.49.01.97,0,1.44-.11.02,0,.04,0,.06-.01.19-.04.38-.1.57-.17h-.01ZM808.95,1768.89h0s4.28,1.57,4.28,1.57l-4.28-1.57ZM815.51,1770.92s0-.08-.01-.12c0,.04,0,.08.01.12h0ZM815.56,1769.63c.11-.28.33-.5.73-.65-.4.15-.62.37-.73.65ZM816.52,1770.93s0,0,0,0h0ZM816.52,1768.9s0,0,0,0c0,0,0,0,0,0,0,0,0,0,0,0h0ZM823.35,1767.8s.01,0,.02,0l1.02.04-1.03-.03ZM825.62,1767.88h-.09s.09,0,.09,0c0,0,0,0,0,0ZM825.67,1767.71s-.02.08-.04.12c.01-.04.02-.08.03-.12,0-.03.01-.06.02-.09,0,0,0,0,0,0-.01.03-.02.06-.02.09ZM839.63,1751.62c.09,0,.19-.01.27-.01.14,0,.26.01.4.02-.22,0-.44,0-.67,0ZM845.22,1767.72c-.6.19-1.28.2-1.99.17-.42-.02-.85-.05-1.27-.06.42.01.85.04,1.27.06.7.03,1.39.02,1.99-.17.04-.01.17-.11.36-.26-.19.15-.32.25-.36.26ZM847.8,1752.8l-1.46-.16,1.47.16c.12.2.21.41.29.62-.08-.21-.17-.41-.29-.61ZM848.14,1765.2c.47-.45.8-.8.8-.89-.02-.26-.11-.51-.22-.74.11.23.2.48.22.74,0,.08-.33.43-.81.89ZM859.53,1768.4c-3.18-.16-6.89-.02-10.63.15,3.74-.17,7.45-.31,10.62-.15.64.03,1.37.59,2.31,1.06-.94-.47-1.68-1.03-2.31-1.06ZM865.53,1769.88c.14-.1.34-.31.55-.58-.22.27-.41.48-.55.58ZM851.23,1752.32c6.3.38,12.9.97,15.59,1.92-2.7-.94-9.3-1.53-15.59-1.92ZM901.45,1769.65c3.98-.35,8-.65,12.18-.75-.11-.04-.22-.1-.32-.16.11.06.21.12.32.16,0,0,.01,0,.02,0-4.19.1-8.21.4-12.2.75ZM903.8,1765.13c.69-.41,2.53-1.23,2.91-2.43-.38,1.2-2.22,2.02-2.91,2.43ZM907.87,1759.92c.23.73.44,1.46.68,2.03-.24-.57-.45-1.29-.68-2.03ZM909.09,1762.82c.16-.22.29-.42.43-.62-.14.21-.26.41-.43.62,0,0,0,0,0,0ZM910.66,1765.4c.21.25.42.56.64.9-.22-.34-.43-.65-.64-.9ZM912.05,1767.44c.25.36.52.69.81.96.09.08.18.15.27.21-.09-.07-.19-.13-.27-.21-.29-.27-.56-.6-.81-.96ZM927.82,1767.88l.04-7.98-.04,7.98c.1.09.32.17.67.22-.35-.06-.58-.13-.67-.22ZM929.55,1768.21c2.75.17,8.36-.08,14.65-.42-6.28.34-11.9.59-14.65.42ZM933.29,1751.91c1.88-.06,3.77-.12,5.65-.22h-.06c-1.86.1-3.73.16-5.59.22ZM950.16,1765.86s.05,0,.07,0l-.09-.12.09.12s-.05,0-.07,0ZM952.91,1750.71s0,0,0,0c.04,0,.08-.01.11-.02-.04,0-.08.01-.11.02ZM953.1,1750.68l-.21-.04s0,0,0,0l.21.04h0ZM952.6,1748.66l-.39-.77.39.77c.37-.03.78-.03,1.21,0-.43-.02-.84-.03-1.21,0ZM958.09,1748.49c.42-.17.79-.43,1.08-.83,0,0,0,0,0,0-.29.4-.66.66-1.09.83ZM970.83,1766.81c-1.24-.16-3.63-.15-6.67-.05,3.04-.1,5.44-.11,6.67.05.34.04.61.15.86.27-.24-.12-.51-.22-.86-.27ZM973.34,1768.9s0,0,0,0c-.05-.02-.1-.06-.15-.12.05.06.1.1.15.12h0ZM71.36,1005.96c-1.15-9.74-3.22-19.85-4.84-29.76,1.63,9.91,3.7,20.02,4.84,29.76ZM71.11,1018.41c-.45.43-1.13.24-2.12-.98h0c.99,1.21,1.66,1.4,2.12.98ZM66.42,1000.51c-6.83-47.87-9.54-95.61-8.71-144.32h0v-.02c.7-40.42,4.41-81.73,10.81-121.78-6.39,40.05-10.11,81.36-10.8,121.78,0,0,0,0,0,0,0,0,0,0,0,0-.84,48.7,1.88,96.45,8.7,144.32ZM61.32,912.68c-.68-18.68-.81-37.42-.63-55.89-.18,18.47-.05,37.21.63,55.89ZM80.53,695.35c-5.39,24.46-9.77,49.67-12.96,75.13-3.19,25.45-5.19,51.16-5.81,76.6,0,0,0,0,0,0h0s0,0,0,0h0c1.23-50.88,8-102.82,18.77-151.73.95-4.31,2.86-10.51-1.55-13.19-.49,2.26-1.06,4.52-1.65,6.79.58-2.26,1.16-4.53,1.65-6.79,4.42,2.69,2.51,8.89,1.56,13.2ZM121.46,538.44s-.01.01-.01.02c-2.36,7.95-6.81,15.48-9.56,23.32l-11.68,36.38c-.98,2.67-2.71,5.85-3.75,8.9-4.26,12.51-7.1,26.58-10.36,39.45,0,.02,0,.05-.02.07-.01.03-.02.07-.03.1,0,.02,0,.03-.01.05-9.6,33.4-16.5,68.37-21.21,103.7-4.72,35.32-7.25,70.98-8.13,105.76-2.23,88.45,8.46,183.91,36.42,268.15.01,0,.01.01.01.01,0,.02,0,.03,0,.04,3.3,12.98,7.36,25.76,11.84,38.38,4.48,12.62,9.4,25.08,14.45,37.46,4.76,11.69,9.31,23.19,15.17,34.39h.01v.02c7.91,15.31,14.61,31.36,22.74,46.56,2.84,5.31,5.99,10.62,9.19,15.87,3.21,5.24,6.48,10.42,9.55,15.48,5.16,11.2,12.13,21.86,18.8,32.29,8.72,13.64,17.96,26.7,27.73,39.54h.01c.81,2.84,2.89,5.67,4.64,8.02,8.82,11.88,18.42,24.09,28.4,35.96,9.99,11.87,20.35,23.41,30.7,33.95.01,0,.01,0,.01,0,12.88,14.7,26.66,29.08,40.94,42.51,6.7,6.31,13.73,12.48,20.76,18.19.02.01.03.02.04.03.03.03.06.05.09.08,12.83,11.32,26.08,24.25,39.86,34.31.97.71,2.15.74,2.51.99h0c6.6,5.42,13.32,10.82,20.21,15.96,6.89,5.14,13.96,10.02,21.27,14.4,6.1,4.3,12.42,8.86,18.87,13.22,6.44,4.36,13.01,8.53,19.57,12.08.02.01.03.02.05.03,11.21,7.67,23.46,13.71,35.36,20.2h.01s0,.01.01.01c6.67,3.64,13,7.18,19.42,10.56,6.43,3.39,12.95,6.63,20.02,9.67,8.53,4.23,17.12,8.62,25.85,12.66,8.74,4.05,17.62,7.75,26.76,10.62.02,0,.03.01.04.01,18.17,8.76,37.55,14.81,56.62,21.24h.01s.01,0,.02.01c6.57,2.21,12.82,4.31,19.1,6.32s12.59,3.93,19.32,5.81h0c5.07,1.41,10.06,2.75,15.17,4.05h.01c4.86,1.23,9.72,2.55,14.6,3.78,4.89,1.23,9.8,2.39,14.73,3.3h0c2.24.41,3.31,1.05,5.93,1.05.35,0,.73-.02,1.14-.04.61.48,1.3.66,2,.75.69.09,1.4.11,2.04.26h.01c6.19,1.53,12.4,2.78,18.63,3.91,6.24,1.12,12.5,2.13,18.8,3.18h.05c2.01.34,3.96.69,6.02,1.01h.01c2.03.31,3.98.73,6.06,1.01,1.41.19,2.55.42,3.78.62,1.23.19,2.55.35,4.31.39h.01c.34,0,.67-.02,1.01,0,.48,1.33,1.92.96,3.03,1.01,1.33.07,2.72.05,4.05,0l43.01,5.05c10.6.66,21.25.61,31.85,1.02h.02c21.07.82,42.12,1.41,63.26,1.06l40.94-3.08h.15c.29,0,.57.02.86,0,5.45-.29,11.26-1.33,16.5-1.94.23-.03.47-.06.7-.08,4.12-.46,9.52-2.34,13.14,0-.67.2-1.38.87-2.01,1.01-3.33.75-5.36.55-8.1,1.01-5.47.92-10.97,2.07-16.47,2.92-.21-.01-.44.02-.73.12-.25.03-.52-.02-.78-.02-.08,0-.15.01-.23.02h-.01c-3.72.53-7.39,1.15-11.08,1.71-3.68.56-7.38,1.04-11.17,1.32l-22.2,2.03s-.04,0-.06,0h0c-1.02,0-2.03,0-3.04,0-13.62.14-27.29.82-40.99.99-1.71.02-4.5-.65-5.55,1.03-4.02-.03-8.13-.16-12.14,0-1.01.04-2.03-.05-3.04,0-2.85-.18-5.78.27-8.64.04-.64-.05-1.31-.32-1.85-.57-.55-.24-.97-.48-1.14-.48h-36.42c-.91,0-2.6-.21-4.42-.44-1.81-.23-3.76-.48-5.2-.57,0,0,0,0,0,0h0c-8.71-.52-17.62-1.15-26.3-2.03-5.5-.56-11.38-1.25-17.23-1.99l-.51.51c-.66-.07-1.33-.13-2-.19.79-.13,1.6-.25,2.43-.33-5.14-.66-10.25-1.35-15.07-2.05-9.71-1.39-19.43-3.23-29.12-4.85-.41-.06-.82-.14-1.23-.21-7.71-1.27-15.41-3.62-23.26-4.04h-.01c-6.8-2.62-14.18-3.47-21.24-5.06h-.01c-6.02-1.36-12.25-2.55-18.21-4.05-.06-.06-.15-.07-.26-.06-2.59-.65-5.26-1.29-7.83-1.96h-.01c-12.7-3.33-25.88-7.22-38.43-11.13h-.02c-6.35-1.99-13.1-4.14-19.81-6.36-6.72-2.23-13.41-4.53-19.64-6.8-5.59-2.03-11.06-4.49-16.57-6.86-5.5-2.36-11.05-4.62-16.79-6.28t-.02-.01c-1.69-.78-3.52-1.46-5.29-2.12-1.76-.66-3.44-1.28-4.83-1.93-8.03-3.74-16.31-7.32-24.28-11.13-12.19-5.84-23.69-13.43-36.42-18.21h-.01c-3.78-2.29-7.51-4.82-11.33-7.17-3.83-2.34-7.75-4.49-11.94-5.99-8.93-6.03-18.38-12.48-28.31-17.2h0c-4.97-4.66-12.9-9.22-18.75-13.14-.73-.49-1.38-.99-2.1-1.37-.7-.38-1.47-.65-2.42-.67-4.9-3.93-9.99-7.89-15.24-11.67-5.24-3.77-10.63-7.37-16.13-10.59l-33.39-26.31s0-.01-.01-.01c-8.4-7.6-16.87-15.15-25.26-22.78-1.25-1.13-2.06-2.51-4.03-2.51h-.04c-8.54-8.47-17.41-17.76-26.29-25.82-1.24-1.13-2.05-2.51-4.02-2.51h-.04c-8.03-8.48-15.22-17.83-24.28-25.29h0c-6.12-7.16-11.85-15.07-19.17-21.21-.01-.01-.02-.01-.03-.02-.01,0-.01-.02-.02-.03-.21-.25-.19-1.57-.96-2.54-7.02-8.8-14.99-17.2-22.3-25.77t-.01-.02c-7.02-10.06-14.27-19.97-22.23-29.3,0-.01-.02-.02-.03-.03h0c-8.96-14.08-18.36-27.99-28.27-41.41-.02-.03-.04-.05-.05-.08-.01,0-.01-.01-.01-.01-5.97-10.69-11.88-21.53-19.22-31.36h0s-31.37-59.71-31.37-59.71c-.3-.71-.19-2.3-.78-3.73-1.39-3.36-3.08-6.91-4.86-10.41-1.79-3.5-3.68-6.95-5.49-10.14l-31.31-81.82-.05-.14h0s-17.17-61.62-17.17-61.62l-.02-.08v-.03c-3.92-18.41-7.74-37.23-11.08-56.13-2.36-13.31-4.47-26.66-6.21-39.94-1.16-8.83-2.17-17.63-2.96-26.36h0c-6-66.56-3.5-137.68,6.2-203.78,3.16-21.59,8.88-42.83,12.01-64.38h.01c4.33-15.17,8.32-30.48,12.52-45.73s8.61-30.44,13.78-45.34c6.33-18.27,14.22-37.62,21.79-55.62,1.64-3.9,4.05-10.24,6.54-16.35,2.5-6.11,5.08-12.01,7.08-15.05h0s0,0,0,0h3.03c-1.28,2.74-1.29,6.63-2.01,9.09ZM126.01,456.5h0c.23-.12.37-.24.44-.36-.07.12-.21.24-.44.36ZM242.86,331.02s-.1-.08-.16-.11c.06.02.12.06.17.11.34,1.35,0,2.48-.62,3.28.61-.79.96-1.92.62-3.28ZM242.61,326.9l.25.06v-1.61s0,1.61,0,1.61l-.25-.06ZM240.42,305.53c-.53.76-.95,1.85-.59,2.21.36.36.78.37,1.19.21-.41.17-.83.15-1.19-.2-.36-.36.06-1.45.59-2.22ZM239.18,315.48c-.16.72.11,1.35,1.16,1.35.67,0,2.09-2.43,1.51-3.01-.09-.09-.19-.17-.3-.22.1.05.2.12.3.22.58.58-.85,3.01-1.52,3.01-1.05,0-1.31-.64-1.15-1.36ZM238.82,325.95l4.04-3.01h0s-4.04,3.01-4.04,3.01h0ZM242.22,330.91c-.79.16-1.99,1.01-2.74,1.75.74-.74,1.94-1.59,2.74-1.75ZM238.97,335.12c.59.84,2.14.48,3.13-.67-1,1.15-2.55,1.51-3.13.67ZM243.79,342.18c.23-.8.29-1.81.08-3.06-.36-.39-1.95.25-3.04.86,1.09-.61,2.68-1.25,3.04-.86.21,1.25.15,2.26-.08,3.07ZM578.45,85.45c1.06.06,2.22-1.44,1.32-2.33,0,0-.01,0-.02-.01,0,0,.01,0,.02.02.89.89-.27,2.4-1.32,2.33ZM738.58,50.77l-.08.08.08-.08s0,0,0,0ZM750.02,20.39s-.02-.01-.03-.02c.01,0,.03.02.04.02,0,0,0,0-.01,0ZM750.5,20.43s-.05.02-.08.03c.03,0,.06-.02.09-.03,0,0,0,0,0,0ZM750.58,20.36s-.02.02-.03.03c.02-.01.03-.03.05-.05,0,0,0,.02-.02.02ZM750.75,19.37c-.07-.01-.14-.02-.23-.03.08,0,.16.01.23.02h0ZM1035.26,33.51c-.76.22-1.9,0-2.86,0,.96,0,2.1.22,2.86,0ZM1033.99,47.69c-1.32-.3-2.2-.89-2.89-.63.69-.26,1.57.33,2.89.63ZM1109.93,32.51c-.14-.07-.18-.2-.17-.33-.01.14.03.26.17.33.71.36,1.38.2,1.8-.09-.41.3-1.09.46-1.8.09ZM1111.95,31.51s0,0,0,0c.06.03.09.08.12.12-.03-.05-.06-.09-.12-.12Z"/>
  <path class="cls-1" d="M1395.24,1112.2c13.49-8.15,27.67-17.05,39.46-27.32-2.68-.32-4.87.33-7.32,1.27-8.72,3.37-25.91,15.27-34.16,20.99-11.86,6.69-23.36,14.58-34.4,22.26-14.13,7.39-27.94,15.82-41.48,24.28-10.23,5.44-22.21,9.12-32.38,14.17-6.82.8-19.9,6.07-21.3-4.5-2.65-19.97,12.9-45.61,19.28-64.31,3.6-3.75,8.61-16.91-1.77-12.39-7.78,3.38-20.22,20.87-26.56,27.57-7.19,7.6-15.03,15.26-23.36,21.67-4.03,3.1-22.31,17.76-24.16,8.15-2.29-11.88,10.39-34.89,18.18-43.99,4.22-1.81,31.35-8.8,32.31-10.19.95-1.37.18-3.29-1.91-3.45-4.05-.31-20.25,8.29-22.84,4.55-.9-1.3-.57-6.75-4.89-5.92-3.13.6-8.29,10.94-14.81,12.99-.15.05-.3.09-.45.14-12.39,3.78-26.77,3.66-39.01,7.95-1.93-.28-4.19.43-6.07-1.01-.86-5.25-1.86-11-3.04-16.19-2.61-11.51-5.59-20.21-16.19-26.31-6.02-3.46-11.37-5.16-18.48-3.81-5.53,1.05-16.49,7.07-17.94,12.92l-2.53,2.02-1.52-2.02c7.63-30.22,10.34-62.37,3.58-93.12-.89-4.05-4.99-19.01-7.62-21.22-3.19-11.41-11.37-22.65-20.24-30.36-8.31-7.84-22.97-18.06-34.4-19.22-5.4-2.83-13.11-4.06-19.22-5.06-3.3-.55-5.09-1.27-9.11-1.02-.66.05-1.36-.07-2.02,0-2.3-1.75-6.82-1.18-9.6-.99-19.62,1.27-38.37,4.64-57.17,10.1-2.1.61-4.06,1.39-6.07,2.02-.31.1-.71-.09-1.02,0-2.39.77-5.43,1.09-7.08,3.04-2.15.49-3.8,1.19-5.76,1.91-.1.03-.2.07-.31.11-6.88,2.51-12.74,5.89-19.22,9.11-13.04,6.48-22.5,11.76-34.4,20.24-13.24,9.42-24.35,18.34-34.4,31.37-8.09,10.48-13.7,20.41-17.11,33.07-.03.1-.06.21-.09.32-.38,1.42-.71,2.56-1.01,4.05-.25,1.2-.75,2.02-1.01,4.04-.88,6.74-.97,10.47,0,17.21,1.5,10.49,6.14,20.85,13.18,28.8,4.44,5.02,9.87,9.99,17.16,8.63,1.58-1.37-9.42-9.08-10.51-10.22-10.63-11.07-15.79-26.05-13.76-41.38.09-.68.78-1.96,1.01-3.04.4-1.87,1.4-5.11,2.02-7.08.78-2.48,3.67-6.32,4.05-9.11,11.01-19.36,26.39-34.84,44.52-47.55,10.7-7.51,22.65-14.49,34.39-20.24,4.87-2.38,10.22-4.97,15.18-7.09,1.55-.66,3.26-1.36,4.97-2.04h.09s-.01-.03-.01-.03c1.74-.69,3.48-1.37,5.07-1.97,3.59-1.37,7.5-2.86,11.13-4.05.3-.1.7.1,1.01,0,1.93-.62,4.3-1.52,6.07-2.02,1.06-.31,2.1-.77,3.04-1.02,1.3-.34,3.2-.56,5.05-1.01,3.58-.87,7.95-.97,11.13-3.03.33.02.68.01,1.01,0,4.65-.15,9.24-1.68,13.16-2.03,11.98-1.06,23.43-1.49,35.41,0,8.13,1.92,16.3,3.54,24.28,6.07,2.22,2.35,10.11,5.18,13.46,7.29,8.74,5.48,15.05,12.53,21.95,20.03,7.88,12.18,13.5,24.03,16.19,38.46.87,38.42.2,65.77-11.13,103.21-2.23,7.37-6.19,18.05-9.11,25.3-4.31,10.73-10.24,21.78-15.17,32.38-6.8,10.18-12.92,20.87-19.22,31.36-5.94,6.99-10.62,15-16.19,22.26-7.6,9.9-16.92,21.13-25.3,30.36-5.91,2.81-10.04,9.13-15.17,13.16-7.28,5.71-19.25,13.49-27.32,18.21-1.5.88-3.88.99-5.06,3.04-2.55,1.24-4.81,2.86-7.08,4.04-4.36,2.27-8.8,5-13.15,7.09,0,0,0,0,0,0h0c-18.46,8.85-37.84,16.11-57.67,21.25l-16.43,2.59c-.82-.13-1.75-.03-2.8.44h-1.01c-6.9-.76-15.11.38-22.26,0-.38-.02-.78-.06-1.2-.13,0,0,0-.01-.02,0-.16-.08-.36-.11-.6-.1-2.88-.52-6.52-1.69-9.3-1.79,0,0,0,0,0,0,0,0,0,0,0,0-.28-.83-10.22-3.8-12.91-4.95-.09-.04-.17-.08-.24-.11-2.41-1.14-8.22-4.49-10.12-6.07-5.04-4.22-12.22-14.73-13.15-21.25-.59-4.17-.46-14.89,0-19.23,1.07-10.13,10.83-27.25,11.13-33.39,5.37-7.82,9.33-16.47,14.54-24.42,5.32-8.11,12.54-17.81,18.85-25.16,8.46-9.88,18.65-20.13,28.31-28.86,5.53-4.99,25.93-22.41,31.38-23.76.19.56.1,3.2,0,4.05-.01.07-.87.28-1.01,1.01-.12.62.14,1.44,0,2.02-6.64,28.13-14.89,56.24-19.99,84.74-1.44,8.08-5.03,19.5-.75,26.55,2.68-.02,11.64-46.56,12.92-51.82,4.47-18.44,8.98-37.11,13.89-55.42.08-.31-.08-.7,0-1.01,0,0,.02-.02.04-.03.17-.1.8-.36.97-.98.16-.58-.16-1.45,0-2.03.23-.81.69-1.91,1.01-3.03,1.22-4.18,1.84-10.13,4.51-13.2,1.89-2.17,19.2-12.25,22.81-14.12.27-.14.75.13,1.01,0,1.95-1,4.11-2.09,6.07-3.04,6.44-3.1,13.57-6.65,20.24-9.11,1.58-.57,3.96-1.35,5.73-1.91h.02c.15-.01.25-.04.32-.11,1.85-.59,4.54-.01,6.07-2.02.33.04.68-.04,1.01,0,8.49-2.05,17.08-5.48,25.89-5.01.9.27,1.81-.72,2.28-1,.01,0,.02-.01.04-.02.05-.03.08-.04.12-.05,3.16-.61,8.23-1.1,10.12-4.03-7.6.52-15.96-1.21-23.27,1-5.82-.09-13.43,2.81-19.23,4.05-.32-.03-.68-.03-1.01,0-1.86.12-5.51.91-7.08,2.02-.32-.03-.69-.03-1.01,0-1.6.13-4.01,1.35-5.68,1.9-.14.05-.27.09-.39.12-8.2,2.29-15.19,5.59-22.89,8.94-.12.06-.25.11-.38.17-1.93.84-10.81,3-11.13,5.06l-6.04-.49,30.32-108.79c.1-3.59,1.77-6.62,0-10.12-.7-1.38-1.24-2.37-3.02-2.02-15.11,42.38-25.55,86.4-37.39,129.82-12.77,7.81-24.88,16.55-36.48,26-13.2,10.76-24.48,21.77-35.94,34.39-1.14,1.26-2.53,2.07-2.51,4.07-4.94,4.04-10.98,13.62-14.58,19.31-4.88,7.69-10.32,16.37-12.74,25.21-2.37.33-10.02,25.18-10.87,29.09-.66,3.01-.89,7.17-1.27,10.37-.39,1.52-.51,3.04-.44,4.39-.52,5.77-.66,11.18-.59,17.38.02,1.71-.65,4.5,1.03,5.55.39,4.49,1.58,7.16,3.04,11.13.95,2.61,1.31,2.59,2.02,4.05.78,1.58.92,2.26,2.03,4.05,6.11,9.87,11.41,14.39,22.25,19.22,5.96,2.66,10.79,3.91,17.2,5.06.33.06.69-.05,1.02,0,14.39,2.37,23.33,2.1,37.4.15.28-.01.63-.05,1.04-.15.33-.04.68.05,1.01,0,1.49-.22,2.58-.81,2.93-.97.02,0,.03-.01.04-.02l.07-.02c3.9-.7,6.12-1.02,10.12-2.02,2.52-.63,4.17-1.15,6.36-1.81.28.02.54-.05.72-.22,8.56-2.56,14.04-4.68,22.26-8.09,10.68-4.43,20.16-8.62,30.35-14.17,8.32-4.53,15.94-9.39,23.7-14.78.24-.11.44-.24.58-.4,5.26-3.66,11.84-7.45,16.19-12.14.59-.64,1.3-1.23,2.02-2.02,4.68-1.33,7.92-6.32,11.13-9.11,7.43-6.47,15.27-12.49,22.29-19.7,4.35-4.48,9.72-10.61,13.12-15.71,5.99-6.63,11.02-12.94,16.19-20.24,2.66-3.76,4.71-7.43,7.08-11.13,9.64-15,16.59-27.37,24.28-43.51,4.59-9.61,7.39-16.4,11.13-26.31.02-.05.04-.11.06-.16.6-1.54,1.26-2.91,1.97-4.9.16-.17.22-.39.22-.64h0c.61-1.77,1.2-3.58,1.8-5.43,1.25-3.88,2.83-7.95,4.05-12.15.49-.6,1.02-1.29,1.55-2.06h.01c.61-.35,1.2-.02,1.84.94.16.42.38.8.64,1.12-.36,7.25,1.79,11.38,7.09,16.19.04.67.01,1.36,0,2.03-12.85,17.77-24.31,42.81-22.24,65.25,1.32,14.37,10.06,24.85,25.36,20.3,1.03-.31,1.58-1.43,1.94-1.57,15.42-6.11,23.45-17.82,31.36-31.36,6.99-11.98,10.04-19.79,13.15-33.4.51-2.22.19-7,2.03-8.59,2.13-1.85,8.32-1.23,11.13-2.54.33.01.67,0,1.01,0,3.15.04,10.96-1.56,14.42-2.27,5.98-1.24,11.94-3.61,17.95-4.81.32.43.31.74,1.01,1.01-1.93,7.38-6.3,14.03-8.55,21.29-17.94,57.68,38.38,11,52.06-6.11,2.41-2.24,12.88-13.7,13.82-14.01,5.09-1.72-.2,4.22.34,6.93-7.16,12.84-15.83,40.54-12.92,54.91,2.31,11.38,20.17,10.43,28.1,5.8,9.55-.06,26.73-10.69,35.41-15.18,14.83-6.6,29.28-16.06,42.49-25.3,11.18-6.34,22.26-13.32,32.38-21.24ZM944.95,914.12c-.01-.11,0-.2.06-.25,0,0,0,0,0,0-.06.06-.07.15-.06.25ZM945.52,914.88s-.09,0-.13-.03c.04.02.09.03.13.03.11,0,.19-.04.26-.07-.07.03-.15.06-.26.07ZM924.27,1080.83s0,0,0,0v1.01s0,0,0,0v-1.01ZM869.17,1126.32l26.86-22.16-26.88,22.18s.01-.01.02-.02ZM843.84,1141.53s0,0,0,0c0,0,0,0,0,0,0,0,0,0,0,0ZM835.78,1148.56c.69-.63,1.38-1.26,2.08-1.88-1.9,1.71-3.78,3.45-5.72,5.18,1.23-1.1,2.44-2.2,3.64-3.29ZM1111.98,1071.77s0,0,0,0c0,0,0,0,0,0h0c.15.17.94.54.96,1.14-.02-.6-.81-.97-.96-1.13ZM1156.47,1117.23v.02c-2.43,9.39-4.09,18.82-7.08,28.33h0s0,0,0,0c-6.76,11.96-12.91,24.56-24.96,32.2-.76.48-3.07,1.73-5.33,2.89-2.27,1.16-4.49,2.23-5.11,2.35h-.01c-18.8,3.67-14.3-26.61-11.66-37.48,3.24-13.36,10.56-26.49,18.74-37.4h.01c5.81-1.38,7.72,1.66,12.92,2.76,3.41.71,6.93.81,10.35,1.29h.01c3.93.54,7.77,1.7,12.13,1v4.03ZM1140.29,1110.18h0c2.19-.43,4.83-.5,7.47-.72-2.63.22-5.28.29-7.47.72ZM1142.4,1111.31c-.49.03-.97.02-1.35-.08.38.1.86.11,1.35.08ZM1149.91,1111.42c3.12.02,6.39-.32,7.82-1.9-1.43,1.58-4.7,1.92-7.82,1.9ZM1157.66,1106.34s.02.02.04.04c.05.05.11.11.17.19,0,0,0,0,0,0-.08-.09-.15-.17-.21-.23ZM1158.49,1103.1v1c-.05.06-.11.1-.17.15-4.04,3.68-29.1-1.69-30.17-3.2-2.18-3.08,8.37-10.68,8.94-12.81,2.05-7.55-9.45,1.04-11.48,2.71-1.29,1.05-1.82,1.93-2.14,2.57-.04.1-.09.19-.13.27-.16.33-.27.59-.45.76-.04.05-.09.08-.15.12-.05.03-.11.06-.18.08-.13.05-.29.07-.5.07-.69,0-1.87-.26-4.04-.84l-2.02-4.04h0c0-.23.01-.45.01-.68,0-.11,0-.23-.01-.34-.4-6.29-2.96-9.67,1.59-16.12,5.82-8.25,19.45-10.84,27.75-5.13,9.99,6.89,12.84,24.16,13.15,35.42h0ZM794.26,1125.35c9.28-4.85,17.71-10.32,26.31-16.19,4.89-3.34,10.09-6.28,14.64-10.15,1.66-1.42,13.25-11.68,11.66-13.12-6.9-.43-12.46,6.73-17.2,11.13-13.71,8.46-27.06,18.02-41.48,25.29-9.87,4.99-20.87,9.64-31.36,13.16-17.57,5.89-35.94,10.34-54.64,9.11-.77-.41-2.59-1.92-2.84-2.71-3.8-11.91,15.29-30.91,14.8-43.12-2.82-2.7-2.83-3.63-3.86-6.79,2-.84,8.5-1.03,7.07-4.55-1.57-3.87-7.14.92-9.09,1.51-4.91,1.47-15.3,2.44-15.18-4.05,9.88-2.02,27.95-26.04,14.14-31.85-4.66-1.96-7.19-.24-10.66,1.31-.15.06-.3.13-.45.19-11.47,4.92-18.44,21.14-11.99,32.74,1.07,1.92,5.45,4.2,3.46,6.78-.98,1.28-27,7.05-31.68,7.99-.09.01-.17.03-.26.05-4.13.8-25.34,4.52-27.61,3.85-.15-.04-.29-.1-.42-.15-.13-.06-.25-.11-.36-.18-.18-.1-.35-.22-.5-.35-.07-.05-.14-.11-.2-.18-.16-.15-.29-.32-.41-.49-.05-.07-.1-.16-.14-.23-.03-.05-.06-.1-.09-.16-.04-.08-.07-.17-.11-.25-.04-.09-.08-.17-.11-.26-.05-.14-.1-.29-.14-.43-.04-.15-.08-.3-.11-.46-.06-.31-.11-.63-.14-.97-.02-.16-.03-.34-.04-.51-.01-.16-.02-.32-.02-.48-.1-3.46.77-7.72-.96-9.88-.25-9.33-6.14-21.65-13.83-27.15-15.82-11.29-36.42-2.74-41.82,15-1.44,2.77-1.46,7.29-.94,10.56.94,5.98,5.51,4.56,1.96,10.69l-56.66,18.22c-8.62,2.04-18.47,5.13-26.31,9.1-7.78,1.94-14.81,5.72-22.53,6.94-6.73-4.95-11.51-13.27-18.95-17.06-6.64-6.78-13.14-15.32-21.25-20.23-6.27-6.52-12.18-13.48-19.22-19.23-4.99-6-13.22-15.11-17.2-21.25-18.07-27.89-13.64-53.4,5.06-78.92.75-.8,1.5-1.6,2.27-2.37,10.39-10.6,22.37-19.02,34.15-27.99,6.93-2.72,12.91-7.36,19.23-11.13,9.73-4.44,19.62-8.67,29.34-13.16l33.44-10.62c.97-.05,1.48-1.23,1.97-1.52,7.23-.36,14.21-2.73,21.24-4.05,19.02-1.24,52.89-8.2,63.95,12.44,8.11,15.14-.08,32.04-13.68,40.37-1,.62-14.78,5.57-7.11,7.81,3.76,1.11,14.47-5.91,17.56-8.49,13.18-11.03,17.72-32.25,7.05-46.54-10.23-13.69-27.69-14.66-43.48-14.69-16.24-.04-33.24,1.55-48.57,7.08-11.83,2.45-23.56,5.64-34.4,11.13-7.23,2.32-14.2,4.66-21.21,7.62-2.6,1.1-6.45,2.26-8.13,4.52-7.81,3.23-16.48,6.85-23.27,12.15-7.49,3.75-15.28,7.6-20.99,13.9-.09.09-.17.17-.25.26-23.36,15.99-37.83,41.19-35.28,70.2.24,2.81.71,7.72,2.9,9.74,2.24,10.59,6.36,16.92,13.15,25.3,4.6,8.32,11.64,14.69,18.21,21.25,2.9,5.95,9.37,10.67,14.17,15.17l40.53,40.98c.12,1.37-.82,1.75-1.71,2.41-9.6,7.09-24.45,11.11-33.76,19.35-8.75,4-17.55,10.27-24.82,16.78-.16.14-.32.28-.48.42-9.99,7.09-19.63,15.38-26.07,25.95-.08.12-.16.24-.23.36-15.98,18.73-17.02,47.79,6.07,60.72,6.18,6.38,16.61,9.79,25.29,11.13,2.2,1.94,5.45,1.63,8.1,2.02,3.77.56,6.04.84,10.11,1.01,1.06,1.68,3.85,1.01,5.55,1.03,20.57.21,45.96-2.77,62.24-16.21,41.54-24.55,26.11-78.09-3.03-106.24-2.02-2.78-12.48-13.88-12.08-15.59.4-1.7,14.24-7.03,17.13-8.7.07-.02.14-.04.21-.06.25-.09.51-.17.77-.24.02-.01.04-.02.06-.02,9.29-2.91,19.6-5.71,28.31-9.8l55.64-17.2c.77,3.01-5.23,9.62-6.89,12.84-9.06,17.55-20.85,50.55-6.26,67.1,7.87,8.94,18.98,6.23,27.32-1.01,1.98.02,2.81-1.37,4.06-2.51,16.75-15.41,25.57-30.22,31.86-52.13,1.95-6.82.03-12.36,6.57-16.19,9.34-.5,18.27-3.07,27.32-5.06,7.83-1.73,15.71-3.31,23.48-5.36,5.53-1.46,19.6-8.87,23.55-1.72,2.55,4.61-7.22,20.52-9.08,26.32-2.79,8.72-5.7,22.01,5.55,25.28,10.32,3,17.5-.14,27.32-2.03,11.21-2.15,19.54-4.21,30.35-8.09,12.35-4.44,24.79-10.11,36.42-16.19ZM414.86,1270.05h0c.19.21.43.38.7.52-.27-.14-.5-.32-.7-.52ZM414.94,1270.04c.93.02,2.03-.08,3.13-.13-1.1.05-2.19.15-3.13.13ZM418.95,1269.89s.09,0,.13,0c.03,0,.06,0,.08,0-.07,0-.14,0-.21,0ZM428.77,1277.34c-2.73,0-5.5-.07-8.09-.15,4.22.13,8.88.22,13.11.06-1.63.06-3.31.09-5.02.09ZM425.87,1270.92c-.28.03-.57.08-.89.14,0,0,0,0,0,0,.32-.06.61-.11.89-.14ZM424.98,1271.05h0c.06-.04.11-.07.16-.1,0,0,.01,0,.01,0,.19-.13.5-.36.9-.56-.4.2-.71.43-.9.56,0,0,0,0,0,0-.05.03-.1.06-.16.09,0,0,0,0-.01,0ZM430.02,1275.76c0,.11,0,.23,0,.35-.15,0-.3,0-.45,0,.15,0,.3,0,.45,0,0-.11,0-.23,0-.34ZM439.14,1276.12s0,0,0,0c.26-.03.54-.04.82-.04-.28,0-.56.02-.83.04ZM441.15,1269.04c-.88.5-1.88.8-2.95.97,1.07-.17,2.07-.47,2.95-.97h0s0,0,0,0ZM445.21,1276.12c-.19.04-.41.07-.62.09.22-.02.43-.05.62-.09,0,0,0,0,0,0h0s0,0,0,0c0,0,0,0,0,0ZM446.21,1275.13h-.01c-.08.16-.25.81-.97.98.71-.17.89-.82.96-.97h0s0,0,0-.01c0,0,0-.01.01-.02,0,0,0,0,0,.01ZM445.23,1269.01c.04-.06.1-.24.22-.44-.12.2-.18.39-.22.44ZM446.22,1275.11s0,0,0,0c.03,0,.06,0,.09,0-.03,0-.06,0-.09,0ZM446.22,1268.02s0,0,0,0c0,0,0,0,0,0h0s0,0,0,0h0c.4-.04.8-.05,1.21-.04-.41,0-.81,0-1.21.04ZM448.3,1275.1s-.03,0-.05.01c-.14.04-.3.04-.46.04.16,0,.32,0,.46-.04,0,0,0,0,0,0,0,0,0,0,0,0,.02,0,.04,0,.05-.01.3-.04.59-.09.89-.13-.3.04-.59.09-.89.13ZM451.28,1268.02s-.08,0-.12,0c.04,0,.08,0,.12-.01,0,0,0,0,0,0ZM464.41,1271.54c-3.71,1.22-7.05,2.02-10.58,2.67,3.53-.65,6.86-1.44,10.57-2.67,2.65-.87,7.17-2.55,11.05-4.77-3.88,2.22-8.39,3.9-11.04,4.77ZM457.35,1266s.11-.03.18-.03c-.07,0-.14.02-.18.03h0s0,0,0,0ZM457.57,1265.96s.06,0,.1,0c.03,0,.06,0,.08,0-.06,0-.13,0-.18,0ZM458.23,1265.99s.09,0,.13,0c0,0,0,0,0,0-.04,0-.09,0-.13,0ZM464.87,1263.4c3.23-1.31,6.47-2.61,9.7-3.76.07-.02.14-.04.21-.05-.07.02-.14.03-.2.05-3.24,1.16-6.48,2.46-9.71,3.76ZM477.04,1259.5c.16-.03.32-.07.47-.13.08-.03.19-.1.31-.19-.12.09-.23.16-.31.2-.16.06-.31.1-.47.13ZM477.75,1265.32c2.88-2.01,4.99-4.35,4.93-6.9,0-.17-.02-.3-.04-.44.02.14.04.27.04.44.06,2.55-2.05,4.89-4.93,6.9ZM471.54,1154.17c4.33,4.9,8.77,10.1,10.09,11.65,8.77,13.91,19.77,27.83,21.29,45,1.73,19.53-5.34,29.67-19.26,42.02h0s-.01.01-.01.01c-8.38,5.15-20.39,10.71-29.95,13.04-5.43,1.33-11.29,1.26-16.58,3.14h0c-4.76.16-10.74.41-16.37.41-3.58,0-7.03-.1-9.94-.4-4.81-.5-10.14-3.35-15.17-3.04-5.12-2.07-9.77-4.67-14.11-7.73-4.33-3.05-8.35-6.57-12.2-10.48-8-14.98-5.8-26.19,2.02-40.47h0s.01-.01.01-.01c5.05-4.61,8.66-10.48,13.63-15.2,5.12-4.88,11.37-9.61,16.72-14.14,0-.01.01-.01.02-.01t.02-.02s.01,0,.01-.01c6.97-3.52,12.87-8.63,19.17-13.12,5.15-2.4,10.22-5.44,15.25-8.51,5.04-3.07,10.05-6.17,15.1-8.69,2.53-1.26,8.58-4.22,10.82-3.32.89.36,5.11,4.97,9.44,9.88ZM616.79,1090.71s0,0,0,0c-.07-.1-.15-.18-.22-.27.08.09.15.18.22.28ZM607.31,1069.69c4.27,3.85,7.59,10.6,8.89,16.2h0s0,0,0,0h0c-4.76,2.25-11.3,4.26-16.44,5.38-1.82.39-3.05,1.11-4.8-.32.14-1.52,2.51-3.1,2.02-5.06-6.65-3.09-14.51,13.55-19.22,8.1h0s-.02-.05-.03-.06c-.37-.61-2.82-6.83-2.94-7.6-3.07-18.77,19.09-28.77,32.53-16.64ZM615.96,1089.85s-.04-.07-.06-.11h0s.04.08.06.11ZM613.89,1131.64c-.13.49-.27.99-.41,1.48-.1.35-.2.69-.3,1.03-.19.64-.39,1.28-.59,1.92-.19.61-.39,1.22-.61,1.83-.11.35-.23.71-.36,1.06,0,.01,0,.02,0,.02-.23.67-.48,1.34-.73,2h0c-.25.66-.49,1.29-.75,1.93-.14.34-.28.68-.42,1.01-.26.63-.52,1.26-.8,1.88-.2.44-.4.89-.6,1.33-.42.91-.85,1.82-1.29,2.71-.22.44-.44.89-.67,1.32-.09.18-.18.35-.26.52-.47.91-.97,1.81-1.47,2.7l-6.72,10.28c-.62.82-1.24,1.62-1.89,2.42l-6.12,6.84c-6.64,4.69-12.9,9.33-21.14,9.33-1.02,0-2.06-.07-3.14-.22-14.36-22.03-.33-51.8,12.14-71.85,6.04-7.42,10.53-1.69,17.82-.11,3.95.85,9,1.6,13.05,2.12,2.22.29,5.09-.44,6.92-.04,2.93.65-.89,15.63-1.65,18.49ZM618.22,1105.11c-1.44,3.21-27.15-1.13-30.35-5.05h0c1.29-2.65,5.25-3.18,8.09-4.05,2.48-.77,18.6-5.24,19.57-4.96,3.81,1.07,2.52,10.91,2.69,14.06ZM690.03,1079.95c-.35,0-.68-.04-.99-.14h0s0,0,0,0h0c-.87-2.51,1.16-9.66,2.47-12.2.34-.66,2.35-3.12,4.35-5.44s4-4.5,4.31-4.62c.49-.18,6.84-.25,7.09,0,.85.84-.43,6.78-1.12,8.5-1.36,3.42-9.65,12.62-15.04,13.78-.37.08-.73.12-1.07.12Z"/>
  <path class="cls-4" d="M550.43,1415.75s0,0,0,0c0,0,0,0,0,0,0,0,0,0,0,0ZM562.57,1421.82s0,0,0,0c0,0,0,0,0,0,0,0,0,0,0,0ZM603.04,1429.93s0,0,0,0h0s0,0,0,0ZM1095.76,1414.74s0,0,0,0c0,0,0,0,0,0,0,0,0,0,0,0,0,0,0,0,0,0ZM922.28,1383.41c3.58-4.08,23.28-1.81,28.8-5.6-8.66-1.15-17.64.68-26.3,1.52-1.11-1.19,3.01-9.5,4.05-11.12-5.89-.86-4.82,9.1-8.14,11.59-3.46,2.6-11.99,1.42-14.12,6.11l12.15-2.01-8.17,24.2c-1.02,1.85-3.15,1.65-5,1.59-.77,3.16,2.87,1.51,3.12,4.55.17,2.2-3.36,9.57-3.89,12.38-.39,1.98-1.17,10.42-.33,11.71,4.12,4.67,31.14-3.71,33.47-6.4.58-.66.18-2.69-1.51-2.03-5.41,1.95-11.76,4.67-17.25,6.04-1.72.42-10.2,2.14-11,1.96-5.43-1.28,3.09-21.94,4.41-25.75,6.92-.97,13.94-1.54,20.86-2.41,3.29-.41,5.98-3.11,1.41-2.65-7.26.73-14.21.95-21.19,2.59-.14-1.12-.02-2.15.28-3.25.92-3.41,6.84-21.29,8.35-23.02ZM731.48,1381.81c3.49-1.11,9.39-1.1,13.21-1.47,2.77-.03,10.63-.69,12.14-3.02l-26.31,1c-.92-2.69,3.72-6.99,3.03-10.12-1.99.17-2.54,3.74-3.74,4.07-7.42,1.98-21.72-2.34-29.64.99-3.33.11-12.58,1.54-14.53.88-2.1-.72-1.34-2.43-1.66-3.92,1.27-1.06,2.31-2.34,2.02-4.04-1.32.35-2.45,1.86-3.03,3.03-1.15,2.34-.84,4.87-1.01,5.06-.34.39-7.95-.29-9.66-.05-2.79.39-9.44,1.55-12.04,2.13-1.83.41-11.01,4.15-11.68,5.52-.84,1.74.48,1.66,1.99.98,5.82-2.66,19.63-6.38,25.87-6.59,1.47-.05,3.95-.17,4.38,1.63l-9.98,63.16c2.82.5,1.69-.61,2.27-2.22.6-1.66,1.15-3.88,1.5-5.64,3.52-18.02,5.05-36.71,7.85-54.88,1.65-3.41,11.41-1.72,15.17-2.02,5.19-.43,11.62-1.78,16.71-2.02,3.54-.17,9.37-.47,12.67,0,1.36.19,1.77-.56,1.5,1.51-1.12,8.49-15.16,2.92-15.18,11.65,1.66-1.13,11.96-5.8,12.11-2.54,0,.27-2.03,3.26-2.48,4.59-2.12,6.37-4.48,12.7-6.05,19.24l-5.6,2.49c7.28.92,1.35,7.51.23,12.37-.54,2.32.07,4.6-.28,6.81-.24,1.55-1.89,2.71-1.94,4.08-.04.91,1.88,5.42,2.66,5.61,4.17,1.05,29.1-5.16,31.69-8.15.52-.6.47-2.43-1.39-1.9-2.84.8-6.43,2.77-9.53,3.64-3.29.94-18.45,5.7-19.98,3.39-2.21-3.33,3.99-20.43,5.55-24.91,7.98-.1,15.34-3.3,23.33-2.47,1.64-1.25-.02-1.83-1.5-2.02-3.02-.38-9.01-.28-12.1.06-2.85.31-6.12,4.2-8.6.37,3.36-6.06,5.37-24.18,12.03-26.28ZM887.34,1375.8c-.91,4.17-7.29,32.58-6.05,33.87.33.34,4.72-.59,5.04,2.03-1.32.28-5.53-.42-6.02.06-.95.92-4.62,22.79-4.98,25.88-.38,3.18.6,11.8-.61,13.56-.71,1.03-3.06,1.46-3.56.98-.44-.42.95-4.02.92-5.46-.03-1.3-.67-4-.92-5.66-4.86-5.47-10.04-12.83-17.2-15.18-3.53,5.16-2.91,9.23-3.54,15.17-4.02-3.28.28-14.73-.96-17.18-1.18-2.32-11.22-5.56-13.74-7.61-1.58-5.11,12.8-5.81,15.55-6.73.83-.28,1.35-.61,1.51-1.53l6.11-32.13c-.62-2.62-6.75-1.34-8.98-1.6h-1.01c-2.81,2.04-7.43.78-11.12.93l-1.02.08c-.65.07-1.98.86-3.49,1.03-3.38.38-14.7-1.1-16.26.98l-9.61,61.22-3.01,2.54,9.99-63.16c-.9-3.78-12.76.58-15.83,1.18-1.47.28-3.06-.77-4.57-.55-2.39.36-6.97,3.71-9.57,4.62-1.48.51-2.68.79-2.28-1.27.99-1.11,2.32-1.81,3.64-2.43,4.34-2.03,15.36-4.57,20.08-5.22,1.89-.26,9.09.53,9.61-.01.31-.32.82-6.99,3.6-8.03,1.83,2.47-3.67,5.55-.55,7.62,1.32.87,12.22-.51,15.21-.54,1.82-.22,3.58-.33,5.29-.35l25.06-1.67c-4.78,12.23-6.12,25.48-8.09,38.45,7.09-1.17,14.18-1.69,21.24,0,2.48-9.13,3.17-19.35,5.54-28.37.53-2.01,2.04-9.3,4.58-5.52ZM839.8,1415.27c-.46,1.99.77,1.41,1.97,2.01,1.27.64,8.53,4.23,9.15,3.54,2.58-11.05-3.38-8.65-11.12-5.55ZM876.22,1411.71c-5.35.28-10.86-.38-16.19,0-2.49.18-3.98-.6-5.32,2.27-.49,1.05-1.9,7.26-1.81,8.17.08.75,1.44,1.16,2.07,1.7l.03.03c4.78,4.11,14.62,8.52,16.16,15.15.35.06.65.09.9.09,2.04,0,.86-1.95,1.08-3.63,1.02-7.93,3.06-15.73,3.08-23.78ZM1192.38,1383.37c4.82-2.95,5.72-11.53-1.11-12.12-19.91-1.7-41.71,30.21-42.88,48.06-.6,9.03-.82,12.78,6.05,18.71.44.38.71,1.67,1.42,2.08,12.99,7.56,42.06-15.31,43.06-28,.71-9.03-18.41-3.24-22.21,1.13,3.5,1.58,20.92-8.36,19.84-.48-1.59,11.52-29.3,32.72-41.09,24.26-.25-.18-4.05-4.25-4.05-4.56v-19.22c0-9.16,17.78-31.11,25.96-35.76,3.72-2.11,16.6-7.11,16.61-.68.01,2.77-2.61,4.33-1.6,6.58ZM1040.12,1437.01s0,.02-.02.03c-.19.14-1.52.53-1.8,1.66-.64,2.66-.21,5.76-1.21,8.43,3.72-1.54,2.83-5.54,4.04-9.11,5.41-15.89,10.35-36.5,12.03-53.23,1.38-13.67-.56-20.37-12.56-9.53-3.12,2.82-4.3,5.53-6.55,8.12-4.54,5.21-9.47,10.52-13.57,16.28-3.07,4.31-5.69,10.75-8.86,14.41-.9,1.04-.97,2.13-2.86,1.68-1.08-10.84,4.51-24.73,2.02-35.41-.32-1.37-2.56-2.92-3.54-4.02-3.14,2.84-5.7,5.58-8.01,9.17-5.67,8.84-10.57,27.47-9.69,37.85.24,2.92.39,6.73,4.04,5.56-4.62-5.52-1.06-12-.08-17.77.37-2.18-.23-4.5.31-6.77.55-2.29,10.92-29.43,14.94-25.02v17.19c-1.18,7.93-2.64,13.25-2.02,21.77.08,1.1-.56,3.38,1.5,2.51,3.1-1.3,15.79-22.65,19.3-27.25,2.14-2.79,5.21-6.54,7.53-9.17,2.31-2.62,11.46-12.79,14.65-12.15.7.15,1.54,1.68,1.54,2.55-.82,6.08-1.18,13.21-2.1,19.14-2.19,14.09-5.63,29.21-9.03,43.08ZM530.2,1374.27c3.98.14,9.92.48,13.67,0,1.4-.17,3.17-.75,1.5-2.02-9.57.62-20.06-1.31-29.34,1.01-2.73.03-15.62,1.6-16.19,1.02-.23-.24.11-3.91,0-5.07,4.09-2.08,1.39-5.29-1.02-1.01-.88,1.58-.78,4.11-1.49,5.08-1.43,1.95-7.33.62-10.09,1.05-4.66.71-15.3,2.92-19.52,4.76-4.57,2-3.51,6.11-1.29,4.27.1-.08-.37-1.46.75-1.97,6.62-3,17.94-2.36,25.12-5.15,3.64.01,2.58,1.13,3.49,3.09l-9.79,60.25,2.7,1.47,8.1-57.67c2.03-1.07.38-4.64,1.15-5.93,1.2-2.02,27.97-.97,32.24-3.18ZM604.06,1401.59l.2.22,13.96,14.96c.91-.35,3.13.35,4.05,0,.99-.37,1.89-1.36,4.04-2.02,2.73-.84,5.27-3.14,9.1-2.02l-7.07,3.03-6.07,2.02c.83,8.29,10.13,10.73,3.47,20.17-7.36,10.43-30.94,6.25-25.48-7.31.57-1.4,1.58-1.44,1.77-1.73,1.45-2.11,2.18-2.54,4.05-4.04,2.34-1.89,7.66-5.88,10.12-7.09-2.42-6.5-10-9.12-13.16-15.18-9.64-18.51,26.85-32.87,38.45-27.32,9.16,4.38-.36,13.53-2.02,12.14,2.86-3.63,4.71-7.16,1.01-11.12-11.12,1.63-16.95.91-27.64,7.26-7.01,4.16-10.17,9.66-8.78,18.03ZM607.09,1425.88c-.12.09-.29.23-.48.39-1.13.98-3.25,2.99-3.57,3.66-7.49,15.59,25.18,15.55,22.05-.27-.33-1.68-4.54-8.73-5.86-9.41-2.03-1.04-10.25,4.16-12.14,5.63ZM1319.33,1378.74c1.69-.51,2.49-.42,4.16-.01,1.46.36,2.78,4.14,3.96,2.62,1.03-1.34-.04-4.58-2.53-5.06-11.02-2.14-22.36,11.14-28.83,18.22-1.85,2.02-4.54,3.63-6.51,6.13-6.16,7.84-16.35,25.22-10.54,34.7,7.78,12.68,29.38,2.65,38.3-4.4,1.83-1.45,4.02-2.82,5.05-5.05-2.3-.32-3.96,2.14-5.36,3.47,0,0,0,.01-.02.01-.2.13-.43.31-.69.56-7.29,4.52-30.69,15.26-35.66,3.79-4.83-11.15,9.04-30.42,16.44-38.2,4.19-4.4,16.83-15.15,22.23-16.78ZM1233.12,1423.01c1.34-.22,6.41,1.52,6.29-.67-.21-3.85-11.96.42-13.82,1.33-7.45,3.67-17.03,16.31-7.41,22.45.33.2.65.91,1.02,1.01.29.07.66-.05,1.01,0,2.14,1.71,8.84,2.07,10.12-1.01.33-.08.72.09,1.01,0,.4-.13.65-.58.84-.84l.04-.05.13-.13c.28-.13.77.15,1.01,0,.24-.15.44-.4.64-.64l.37-.37c3.23-2.38,5.61-4.99,8.1-8.09,10.92-13.63,17.53-32.93,20.46-49.86.93-5.35,3.89-8.16-.78-13.85-5.8-7.05-13.68-.13-18.67,4.01-6.79,5.63-14.03,14.3-17.59,22.37-2.28,5.16-4.23,10.5-2.64,16.07l5.88-16.88c2.54-5.13,9.95-15.94,14.66-19.99.02-.01.04-.03.05-.04.18-.12.4-.29.65-.52,5.45-4.11,17.16-9.56,17.2,1.51.06,12.99-11.93,45.79-20.23,56.16-1.48,1.84-6.99,6.56-9.11,8.1-.2.15-.38.36-.55.55l-.46.46c-.26.14-.73-.13-1.01,0-.44.21-.75.7-.92.91l-.1.1c-.28.1-.68-.08-1.01,0-.73.18-1.62.51-2.25.75l-.25.09-.04.02c-.05.01-.08.03-.12.04l-.24.08-.13.04c-1.01.04-2.03,0-3.04,0-.01,0-.02-.01-.03-.01-.18-.15-.66-1.39-3-1.01-6.44-10.07,4.12-20.48,13.92-22.09ZM1127.13,1392.49c-.32,1.49.27,3.66-.08,5.45-.86,4.36-4.67,9.04,1.09,11.24-4.92,1.64-4.81,4.53-5.82,9.36-2.11,10.12-1.48,15.19-1.45,25.09.01,2.8-2.36,5.84-2.85,2-.74-5.78,1.31-8.79-2.02-14.69l-.1-.1c-.25-.2-.84-.44-.91-.91v-1.02c-2.06-.72-6.85-6.25-9.79-7.91-3.65-2.07-7.7-2.08-10.45-5.24-3.74.51-3.45-.39-6.07,3.03-7.63,9.99-11.5,23.75-17.45,34.66-.86,1.57-2.57,2.72-3.79,1.76-1.71-1.34,18.62-34.91,20.23-38.44-.07-1.03.32-2.4.02-3.3-.46-1.41-3.48-1.16-3.05-3.26.55-2.69,4.65-2.17,6.07-2.55.31-.08.69.09,1.01,0,4.89-4.21,7.76-10.86,11.72-16.1,6.44-8.52,16.39-20.29,25.71-25.38.3-.17.18-1.57,2.01-1.01.27,3.44,4.03,3.19,2.04,6.07-2.8,4.03-3.14,13.23-4.25,18.56-.29,1.37-1.57,2.35-1.79,2.63-.02.03-.03.05-.03.06ZM1090.71,1409.7h0c-.25-.26-.55-.34-.85-.31-1.01.08-2.04,1.45-1.17,2.32.32.32.71.37,1.09.27.44-.13.85-.49,1.07-.92.01-.02.02-.05.03-.07.05-.11.09-.22.11-.34.06-.34-.01-.68-.28-.95ZM1121.01,1411.71c0-.18-.01-.3-.03-.36-.7-2.19-3.3-1.54-4.98-1.66h-.03c-6.76-.5-15.9-.48-22.23,1.01l1.01,4.05s0,0,0,0c0,0,0,0,0,0,.07.02.13.03.2.03.28,0,.59-.12.81-.03h.01c4.5,1.8,10.47,4.58,14.48,7.26,2.83,1.89,4.45,5.5,7.86,5.86.29.04.6.05.92.03.06-.12.13-.43.22-.88.04-.22.09-.48.14-.77l.64-4.56c.06-.44.11-.89.17-1.34l.81-8.64ZM1129.1,1379.78c.44-2.02-.21-4.2.5-6.57.22-.75,1.21-2.67,2.24-2.92l-1.81-2.54s.92.77,1.45,1.55c-.53-.78-1.45-1.55-1.45-1.55h0c-.39.73-1.47,1.44-1.98,1.88-5.72,4.93-11.65,10.07-16.62,15.76-1.94,2.23-13.09,16.41-13.49,17.89-1.79,6.65,16.42,1.17,20.08,4.38,1.22-.05,3.4.58,4.17-.58,1.17-5.23,2.7-10.4,3.93-15.61.9-3.85,2.21-8.18,2.98-11.69ZM646.54,1407.67l-9.09,4.03c2.7.31,9.01.03,9.09-4.03ZM575.73,1410.7h0s0,0,0,0c0,0,0,0,0,0,0,0,0,0,0,0ZM585.84,1373.26c-.01.34.04.68,0,1.01-.09.87-.02,1.71-1.01,2.03-3.16,7.15-3.79,20.5-6.07,28.33l.03.88v.42c.32.76,1.85,1.16,2,1.73.1.44-.11,1-.01,1.51-.3.7-.79.42-1.01.52-.22.1-.65-.06-1.01,0-.86,2.98-2.95,6.11-3.57,9.07-.97,4.69-.93,25.71-1.99,27.36-.63,1-1.4,1.19-2.53,1,.14-7.19,1.01-14.46-4.05-20.23,0-.02-.04-.04-.08-.08-.66-.58-4.48-3.64-4.98-3.97-1.84-1.23-9.26-5.35-11.13-6.07-.48-.19-1.44.16-2.02,0-1.34-.37-2.71-.64-4.05-1.01-8.03,12.54-15.05,25.62-20.8,39.4-.28,1.02-2.11,1.45-2.46,1.07-.82-.9,8.31-19.35,9.73-22.13,2.11-4.15,11.28-17.27,10.57-20.69-.22-1.06-6.27-2.14-1.02-5.17,4.31-2.49,4.61-.3,9.04-5.64,9.19-11.06,16.93-27.21,30.35-34.4.7-.37.74-.74,2.03-1.01v-1.01c.68-2.47,3.68.56,4.04,2.02.27,1.06.06,3.72,0,5.06ZM544.36,1411.7c-.86-2.21-1.68-2.4-3.03-.49l3.03.49ZM575.7,1412.36c0-.6.19-1.42.03-1.66-.05-.07-.14-.13-.28-.19.14.06.23.12.28.19-.86-.24-1.72-.45-2.6-.64.88.19,1.74.4,2.6.64-.99-.26-1.98-.48-2.98-.69-6.28-.68-20.43-.69-23.22-.34-.03.01-.08.01-.11.02-.7.1-1.44-.03-2.05.48-.99.77-.72,2.21-.98,2.55.03.03.06.05.09.08,1.11.87,2.85,2.44,3.95,2.96,4.83,2.26,7.28,2.58,12.14,6.07,1.78,1.28,3.39,2.65,5.06,4.05,0,0,0,0,0,0,0,0,0,0,0,0,0,0,0,0,0,0h0c1.62,1.36,1.85,3.83,5.05,3.03-.3-5.43.03-10.59,2.05-15.67.22-.38.55-.58.99-.52-.02-.1-.03-.23-.03-.36ZM573.1,1410.05c.09.01.18.02.27.03-.09-.01-.18-.02-.28-.04,0,0,0,0,0,0ZM577.75,1406.65h-1.01s0,0,0,0h1.01s0,0,0,0ZM580.79,1369.21c-7.41,7.22-14.95,14.5-21.22,22.8-3.13,4.13-8.05,9.34-8.12,14.64l.54.16.3.07c.16.03.32.06.48.08l.62.08,2.19.09c5.8,0,14.65-1.41,19.13.53.01,0,.01-.01.01-.01.18-.46.53-.86,1.01-1,0,0,0,0,0,0,0,0,0,0,0,0,1.01-1.84,1.34-3.9,1.51-5.92.16-2.02.18-4,.57-5.66.89-3.73,2.76-8.59,3.75-12.43.85-3.29-.52-6.88,3.27-9.38h0c.38-4.32-1.3-3.38-4.04-4.05Z"/>
  <path class="cls-3" d="M1116,801.54s0,0,0,0c0,0,0,0,0,0,0,0,0,0,0,0ZM1091.29,526.74c-29.67-26.91-78.75-51.03-119.47-51.02-2.94,0-7.07,1.46-7.59,4.6-1.83,11.03,15.57,7.78,21.7,8.61,106.2,14.4,175.38,112.66,158.1,217.71-1.01,6.16-7.14,25.07-5.25,29.12,4.08,8.74,10.39-12.28,11.15-15.12,18.63-69.31-6.28-146.42-58.64-193.9ZM778.89,753.68c2.15,4.73,12.36,24.56,15.33,27.17,2.06,1.8,9.89,2.97,13.17,4.02,2.22.72,7.98,5.35,9.65,2.51l-12.25-17.6c-20.19-33.55-30.07-73.17-26.71-112.42.66-7.65,6.73-25.45-3.26-28.2-6.04-1.66-9.24,4.39-10.47,9.41-8.11,33.16.46,84.22,14.54,115.11ZM1143.32,759.06c-6.04,1.95-13.65,4.91-14.17,12.13l-17.19,25.3c13.99-6.58,32.35,5.01,35.4,19.22-3.91-.19-6.56-2.62-10.61-3.03-9.65-.98-31.17,8-29.86-8.1,3.6-1.59,5.23-2.15,9.11-3.03,2.08-.47,6.84.07,8.09-2.02-4.36-.53-8.12.19-12.13,1.01h-.01c-2.52.51-4.68,1.16-7.08,2.02.16.53-.11,1.39,0,2.02-4.55,2.33-9.94,13-16.19,15.18-3.82,4.43-7.66,6.63-12.14,10.12-6.26,4.88-12.59,10.58-20.23,13.16-5.36,4.05-9.5,5.18-15.18,8.09-1.65.85-3.63.96-3.04,3.04,15,3.46,21.8,15.04,23.15,29.97,1.45,16.08-3.53,3.9-8.22.12-9-7.23-32.19-8.29-28.08-24.02.59.5,8.87-1.55,15.18,1.01.83.34,4.87,3.27,5.05,3.03.44-2.2-1.52-2.92-3.03-4.04-3.64-2.71-6.97-3.88-10.66-3.88-2.12,0-4.36.39-6.85,1.08-1.55.42-2.49,1.72-2.72,1.79-8.01,2.22-16.03,4.84-24.29,6.07-1.77.54-13.5,3.03-14.67,3.03h-15.17c-4.84,0-9.78.17-14.68.1-.3.11-.65.18-1.05.21-.57.35-1.52.31-2.99-.31-30.76-1.36-55.64-7.3-82.98-21.73-4.68-2.47-20.29-13.55-23.15-14.2-1.78-.41-13.67,5.35-17.09,6.3-15.67,4.36-38.01,5.71-52.5-2.56-11.87-6.78-17.69-19.87-12.24-32.85,10.53-25.06,45.69-7.89,62.53.77,13.3,6.84,18.45,16.27,32.85,2.54,18.26-17.43,14.03-43.23,7.59-64.75-.45-1.51-1.73-2.83-1-5.06,1.18-.02,1.47,1.31,2.02,2.02,2.87,3.73,7.54,16.19,8.8,21.05,5.58,21.59,2.34,41.95-12.32,58.91-1.74,2.01-5.58,2.92-4.49,5.45.82,1.88,22.85,15.36,26.34,17.17,16.21,8.4,32.53,12,50.46,14.8h.13c.84,0,1.68.01,2.52.04,3.01-.02,6.05-.27,9.03-.08,1.31.09,2.64,1.05,2.99,1.05h27.32c3.01,0,8.72-.85,12.65-1.01,6.81-2.18,14.39-2.72,21.27-4.52,9.54-2.5,19.95-7.84,29.32-9.65,4.49-1.76,9.78-5.72,14.16-7.08,2.83-1.89,5.46-3.91,8.09-6.07.64-.52,1.36-.33,3.04-2.02,0,0,0-.01.01-.01,1.11-1.12,2.08-2.73,3.02-4.04h.01s1-10.12,1-10.12c-.82-.12-1.41,1.77-1.76,3.09-.11.38-.19.72-.25.94,0,0,0,0,0,.01,0,0,0,0,0,0,0,0,0,0,0,0,0,0,0,0,0,0,0,0,0,0,0,0-.34,1.22-.52,2.94-.91,4.64-.38,1.7-.97,3.36-2.12,4.46-.37.36-1.18.53-2,.78-.81.26-1.64.58-2.05,1.25-13.72-1.45-7.71-20.85-2.02-28.34,1.45-7.05,3.74-13.82.03-20.75.33-4.55,9.19,5.06,10.06,6.1,9.07,10.86,11.61,20.53,6.1,33.88-.82,1.98-1.49,2.34-1.88,2.82-.05.07-.11.14-.15.22-.14.25.14.74,0,1.01l.5.99c1.02-1.24,2.29-2.08,3.55-3.02,3.07-2.28,5.89-4.04,9.1-6.07,4.32-6.1,11.03-9.91,16.19-15.18.06-.06.12-.12.17-.17,3.73-3.81,9.07-9.88,12.41-14.06,11.96-14.94,19.42-38.62,43.91-30.62,2.16.7,9.28,4.58,11.23,5.96,7.78,5.52-3.23,4.13-7.02,4.98-8.83,2-20.94,18.2-30.35,8.62-1.7-9.06,9.79-8.43,12.15-15.17ZM823.6,821.8c-10.26-4.79-20.64-14.15-32.11-15.96-25.01-3.96-17.55,18.3-.5,20.74,7.5,1.08,24.07-.13,31.22-2.66,1.43-.51,1.7.3,1.39-2.12ZM788.22,382.11c1.32-.77,2.54.17,1.99-2.51-37.69,6.59-58.97,50.98-28.82,79.93.95-3.54-2.38-7.12-3.57-10.6-10.32-30.28,5.26-52.19,30.4-66.82ZM788.92,362.72c-13.64.2-27.47,4.07-37.65,13.38-.17.14-.34.3-.51.46-9.34,3.96-21.21,25.76-23.84,35.36-.62,2.27-.1,4.33-.44,6.13-1.47,7.73-2.69,12.3-2.01,20.72.3,3.78,5.19,20.83,4.61,21.78-1.12,1.85-14.05,3.27-17.76,4.57-25.02,8.79-35.35,35.95-25.79,60.16,13.04,33.02,49.3,42.7,81.91,40.49,8.73-.59,17.37-3.79,26.19-2.89,3.34,5.06,4.95,13.56,10.11,17.67,3.49,2.77,15.14,10.08,18.85,7.49,10.69-10.84,20.52-23.24,32.46-32.8,4.9-3.92,11.07-6.91,15.89-10.39,1.28-.92,2.05-2.45,1.22-3.35-1.66-1.82-25.98,15.03-28.81,17.22-4.04,3.12-15.91,15.22-19.04,16.45-2.71,1.07-5.89-.94-8.8-.28-2.43-1.14-8.16-5.87-9.57-8.14-1.96-3.15-1.86-8.03-3.52-10.39-4.41-6.31-29.41-.02-36.95.36-14.61.73-33.54-1.21-46.38-8.34-26.01-14.45-40.17-56.43-5.76-70.12,14.4-5.73,27.81-4.17,41.47,2.52l-12.66-19.21c-3.29-5.65-5.34-11.82-6.56-18.23l-.48-11.78c.59-16.67,7.32-27.33,18.69-41.85,13.35-12.26,27.54-16.51,45.53-16.19,18.1,3.68,30.09,18.69,34.16,36.16.47,2.02.1,8.26,1.27,9.37,1.74,1.67,1.7-.31,1.99-1.5.58-2.44.6-5.15,1.03-7.6,2.75-5.86,6.2-11.45,9.1-17.2,4.86-3.9,11.54-10.73,17.2-13.16.24-.02.45-.1.61-.23,3.9-1.43,9.71-1.46,13.56-2.8.49.04.94.05,1.34,0,3.66.09,6.97,1.02,10.8,1.01,31.39,6.68,45.13,37.23,30.35,65.77-2.9,4.16-4.83,9.87-7.08,13.16-2.71,3.94-8.3,10.49-11.62,14.18-3.6,3.98-8.09,7.09-11.65,11.11-3.4,2.08-7.01,5.41-11.13,5.06-2.76-2.4-8.04-10.67-9.65-14.12-2.18-4.67-2.61-10.06-5.53-14.21-.52-.75-.83-2.02-2.01-2.02l.69,4.16c.03.54.13,1.17.31,1.91.17,5.53,2.23,13.36,4.11,18.66,1.47,4.11,5.3,7.54,5.1,12.21-.13,3.35-9.18,5.19-10.22,8.59-5.24,2.35-10.7,4.51-15.95,6.9-7.39.84-19.19-9.91-23.51-15.5-3.46-4.48-5.05-10.71-9.09-14.67-.76,10.75,6.64,23.48,13.75,31.26,1.35,1.47,6.1,4.09,6.39,5.81.29,1.69-8.34,8.4-10.04,9.47-1.83,1.17-12.31,6.53-13.87,6.88-8.65,1.98-19.35-8.37-24.55-14.49-2.44-2.87-4.14-7.16-7.09-9.58,1.75,15.47,20.77,42.98,38.48,34.95,5.52-2.5,8.32-6.98,12.09-9.66,12.46-8.85,25.92-16.22,37.44-26.31,5.95-2.69,11.53-6.85,16.19-11.13.3-.14.61-.29.93-.44,3.67-1.84,7.8-4.58,10.19-7.65,4.05-1.37,4.32-4.02,9.4-2.84,11.57,2.7,29.33,24.44,18.93,36.23l-22.25,15.18c-5.44,2.46-12.27,5.64-16.19,10.11-13.97,7.47-26.73,17.84-37.44,29.35-9.03,8.08-15.98,18.21-22.26,28.33-28.65,46.22-27.25,97.35-.17,144.37,2.31,4.01,7.4,12.29,10.29,15.51.94,1.05.93,2.54,3.03,2.02.28-1.7-.77-2.98-2.02-4.05.01-.32.04-.68,0-1.01-.1-.83-.32-1.5-1.01-2.02-13.87-33.15-22.61-61.71-18.2-98.64,1.74-14.51,7.04-26.37,11.12-39.99l14.36-22.57c3.84-5.65,9.61-9.83,12.96-15.88.12-.13.24-.25.36-.38,10.21-10.78,22.63-18.52,34.04-27.95.75-.3,1.44-.61,2.07-.92.07-.03.13-.06.19-.09,4.98-2.25,11-5.18,14.94-8.1,8.17-4.15,15.94-8.65,23.27-14.17.37-.28,1.65-.23,2.52-.97,10-8.55,8.37-17.69,3.09-28.42-5.65-11.45-14.73-17.62-24.78-24.87-.44-1.5,5.7-9.64,7.02-12.52,5.22-4.68,8-11.23,11.13-17.2,9.97-18.98,15.18-35.11,4.43-55.53-7.98-15.15-29.15-25.13-45.91-24.41-3.01-.81-3.98-1.21-7.64-1.05-3.63.16-9.1,1.01-12.59,2.06-4.07.37-8.67.46-12.14,3.04-5.53,1.06-10.84,3.4-15.18,7.08-6.56.24-9.95-4.74-16.19-6.07-7.7-6.45-22.7-7.95-32.37-8.1-.09,0-.51-.69-1.3-.68ZM777.66,616.29c19.55,2.38,15.51-27.1-.84-24.01-11.81,2.23-14.97,22.08.84,24.01ZM614.43,468.39c2.95,3.44,16.19-.35,20.5-.75,4.21-.38,19,.71,21.25-3.03,1.86-3.1-.26-7.36-4.03-7.16-10.43,1.65-22.05.77-32.32,2.17-4.59.63-9.34,4.18-5.4,8.77ZM892.4,471.68c6.19-3.4,13.74-11.3,15.17-18.22l-11.85,10.11-8.38,2.03c-13.91-6.41-15.29-37.05-17.2-50.59-2.37-.15-1.79-.33-2.02,1.5-1.14,8.95,1.41,31.66,3.99,40.55,2.64,9.06,10.1,22.22,20.29,14.62ZM957.02,732.36c-.14-1.7-2.44-13.27-2.91-13.79-1.32-1.43-1.91.11-2.05,1.54-.36,3.6,1.25,9.44,1.09,14.19-.48,13.5-6.89,25.79-13.19,37.4l-20.23,20.74c23.23-8.77,39.44-35.1,37.29-60.08ZM894.09,577.11c-1.28.65-3.59.68-3.71.82-2.23,2.59,5.85,6.44,7.81,6.85,7.79,1.6,16.67-.95,20.98-7.91,1.56-2.5,5.31-11.8,1.05-12.16-3.53-.3-21.57,10.09-26.13,12.4ZM945.16,691.61c1.11,2.36,4.21,8.89,5.9,10.29,1.24,1.02,2.44.89,2.06-1.04-9.75-19.36-10.53-40.17-7.09-61.21,3.05-10.07,5.91-20.09,11.12-29.34-1.99-.46-2.39,1.03-3.44,2.11-3.66,3.79-6.88,10.77-8.95,16.98-.01.01-.01.02-.01.03-1.39,2.89-2.24,5.35-1.76,6.17-6.28,17.62-5.85,38.95,2.17,56.01ZM879.55,269.13c4.28-1.28,10.3-25.24,13.68-29.93,1.21-4.21-1.77-7.49-6.18-6.16-1.51.45-2.26,1.9-2.94,3.17-4.19,7.78-6.19,19.75-10.76,27.79-.95,3.97,2.5,6.24,6.2,5.13ZM631.62,390.99c-2.98-1.34-22.21-7.04-25.18-7.28-5.62-.45-8.89,3.82-5.15,7.77,1.19,1.25,28.31,9.42,30.67,9.28,4.99-.29,5.65-7.08-.34-9.77ZM856.09,309.38c-1.74,5.9-12.44,26.41-11.07,31.03,1.21,4.08,4.79,3.78,7.65,1.47,1.84-6.53,12.85-25.91,11.21-31.39-.96-3.21-6.13-4-7.79-1.11ZM802.65,302.83c-1.38-.39-4.12.13-5.11,1.12-3.61,3.62,1.33,25.62-.24,31.63.23,2.38,3.4,3.76,5.52,3.56,6.52-.62,2.75-15.21,2.53-19.71-.21-4.37,2.25-15.21-2.7-16.6ZM684.51,341.12c-4.23-3.63-12.53-13.87-18.09-11.98-3.15,1.07-1.66,5.82-.2,8.01.76,1.14,19.6,17.08,20.84,17.64,3.42,1.54,7.13-1.6,6.83-4.89-.36-3.9-6.74-6.52-9.38-8.78ZM738.33,315.01c-2.56.76-3.35,3.83-2.54,6.14,3.26,3.29,11.97,27.7,16.03,26.68,1.16-.3,4.58-3.1,4.8-4.3.88-4.68-11.6-20.57-12.45-26.66-1.28-2.07-3.57-2.54-5.84-1.86ZM797.97,264.34c-1.6.52-2.39,2.98-2.63,4.52-.7,4.59-1.57,29.64,4.44,29.79,10.24.26,3.09-24.45,4.39-30.66-1.1-2.25-3.48-4.52-6.2-3.65ZM723.78,279.55c-1.13-.39-2.52-.29-3.67.05-2.71.81-3.15,3.7-2.53,6.14.43,1.64,8.99,17.51,10.48,19.93,5.53,8.98,11.83,6.9,8.75-2.7-.91-2.86-11.52-22.91-13.03-23.42ZM707.72,246.07c-2.68-3.28-6.37-2.64-7.82,1.26-1.53,4.13,11.5,22.2,12.57,27.87,4.34.8,8.48.17,7.55-4.91-.42-2.27-10.69-22.27-12.3-24.22ZM695.26,360.66c.35,1.24,8.66,9,10.35,10.45,1.4,1.19,9.82,8.12,10.46,8.31,3.78,1.13,8.06-2.25,6.64-5.59-.9-2.14-20.34-18.67-22.46-19.06-2.79-.5-5.84,2.89-4.99,5.89ZM643.22,395.97c-2.84.85-3.48,4.48-2.26,6.91,1.72,3.4,21.24,6.8,25.52,8.9,5.7-2.11,5.85-6.82.57-9.69-3.24-1.76-20.93-6.98-23.83-6.12ZM867.92,277.7c-1.67,3.07-7.2,17.53-7.69,20.69-.21,1.27.16,3.14,1.06,4.05,2.44,2.43,6.48.87,8.08-2.04,1.16-2.11,7.58-18.68,7.83-20.57,1-7.59-5.63-8.87-9.28-2.13ZM678.67,406.07c-5.8,1-4.92,6.84.2,9.5,4.07,2.12,27.61,10.44,24.94.43-1.13-4.21-21.49-10.56-25.14-9.93ZM683.81,454.71c-6.29.19-13.11.78-19.3,2.04-5.32,2.54-3.76,8.37,1.74,8.93,2.48.25,19.1-1.43,21.02-2.35,6.35-3.06,3.63-8.84-3.46-8.62ZM719.39,481.8c-19.48,5.94-26.16,30.4-9.6,43.5.54-4.45-3.82-9.06-4.49-13.71-.9-6.18,1.89-14.71,5.33-19.84,2.53-3.75,7.83-5.32,8.76-9.95ZM976.86,579.92c-2.35,7.06-7.9,12.45-10.59,19.25,11.61-6.52,16.08-17.15,19.21-29.34.32-1.25,1.13-7.99,3.02-6.07,2.05,2.08,2.02,15.01,4.29,19.5,5.67,11.22,40.97,27.48,52.71,34.31,15.09,8.77-5.67,20.69-4.4,29.61.84,5.88,14.41,9.76,14.97,14.4.45,3.73-9.39,11.46-3.78,14,1.76.8,6.14-1.72,7.06,3.03,1.85,9.54-8.71,12.92-2.03,22.26,2.98,4.16,12.02,10.69,11.99,15.18-.04,6.82-7.43,10.06-11.99,13.65-8.76,2.45-17.37,6.13-26.21,8.55-.67.15-1.38.34-2.12.56-11.73,1.31-16.53,3.67-24.28,12.14-10.7,11.7-15.33,25.7-20.24,40.48-.28.85-2.27,4.83-2.02,5.05,3.46.61,2.47-3.03,3.03-4.04,4.01-7.17,6.67-15.62,10.75-23.15,3.27-6.03,6.76-11.37,11.51-16.31,8.23-4.31,13.94-5.8,22.26-9.11,1.19-.21,2.26-.45,3.21-.71.02-.01.04-.01.06-.02,9.55-2.16,19.05-4.64,28.09-8.38,5.73-2.37,11.5-4.13,15.01-9.78,9.2-14.79-15.86-19.53-12.75-30.95.6-2.18,3.67-5.83,4.33-8.83,2.91-13.28-8.46-10.3-8.58-12.66,2.02-3.94,6.28-9.36,4.85-13.97-1.04-3.36-14.44-8.52-15.05-12.37-1.22-7.69,14.25-18.58,9.64-28.8-1.22-2.72-31.67-17.91-37.22-21.45-2.94-1.87-19.15-12.5-18.5-15.03.66-2.55,3.4-4.2,1.61-8.06-9.67,10.87-7.86-6.73-9.55-13.21-1.04-3.99-3.73-7.35-4.87-11.32l-19.95-27.6-3.05.02c8.59,11.32,13.79,25.54,13.14,39.97-.23,5.21-1.93,14.28-3.56,19.2ZM949.76,592.35s-.01.01-.01.01c-.58.77-1.15,1.68-1.7,2.76l-11.57,14.25-.03.03c-.53.51-1.05,1.14-1.55,1.91-7.46,5.42-14.62,12.87-22.95,18.04l-22.58,12.31c14.69-1.73,31.47-9.92,43.42-18.79,3.56-2.66,6.12-5.7,9.19-8.52,4.65-4.27,10.18-7.91,13.15-14.17,3.82-4.15,7.48-10.82,9.11-16.19,6.85-14.18,8.14-32.28,3.31-47.37-.55-1.72.44-2.66-2.3-2.21v15.69l-7.08,26.81c-2.79,5.15-5.4,10.41-8.41,15.44ZM933.57,545.84c-5-6.25-11.53-2.04-17.19.88-.58.15-1.16.43-1.72.85-4.94,2.29-7.99,4.67-12.14,7.08-15.93,9.24-36.45,22.78-46.54,38.45-.42.65-3.61,1.56-1.51,3.05,1.72.25,2.41-1.6,3.14-2.61.13-.14.26-.29.39-.44,15.55-12.12,31.98-18.11,46.54-28.33,4.61-.11,8.4-3.24,12.14-5.06,6.35.37,23.67-5.39,16.89-13.87ZM933.87,641.68c-1.24-.34-1.41,1.65-2.01,3.03-8.57,19.59-.77,46.4,14.17,60.71.87.84,1.43,2.83,3.02,3.03.87-2.28-1.05-3.16-1.78-3.78-.07-.08-.15-.17-.23-.26-6.07-11.14-12.94-22.94-14.16-35.93-.65-6.97.53-14.73-.01-21.75,1.66-.82.93-3.43,1-5.05ZM909.6,820.76c1.49.53,2.41-.61,3.23-1.4.22-.11.5-.31.82-.61,43.82-17.73,65.88-64.84,51.6-110.29-.24-.75.16-2.11-.01-3.03-3.35-3.21-2.65,10.88-1,12.13-.22,35.52-10.43,64.92-37.23,88.99-4.52,4.06-9.74,7.3-14.37,11.19-1.03.86-2.74,1.47-3.04,3.02Z"/>
</svg>